<?xml version="1.0" standalone="no"?>
<!DOCTYPE svg PUBLIC "-//W3C//DTD SVG 1.1//EN" "http://www.w3.org/Graphics/SVG/1.1/DTD/svg11.dtd" >
<!--
2013-9-30: Created.
-->
<svg>
<metadata>
Created by iconfont
</metadata>
<defs>

<font id="iconfont" horiz-adv-x="1024" >
  <font-face
    font-family="iconfont"
    font-weight="500"
    font-stretch="normal"
    units-per-em="1024"
    ascent="896"
    descent="-128"
  />
    <missing-glyph />
    
    <glyph glyph-name="x" unicode="x" horiz-adv-x="1001"
d="M281 543q-27 -1 -53 -1h-83q-18 0 -36.5 -6t-32.5 -18.5t-23 -32t-9 -45.5v-76h912v41q0 16 -0.5 30t-0.5 18q0 13 -5 29t-17 29.5t-31.5 22.5t-49.5 9h-133v-97h-438v97zM955 310v-52q0 -23 0.5 -52t0.5 -58t-10.5 -47.5t-26 -30t-33 -16t-31.5 -4.5q-14 -1 -29.5 -0.5
t-29.5 0.5h-32l-45 128h-439l-44 -128h-29h-34q-20 0 -45 1q-25 0 -41 9.5t-25.5 23t-13.5 29.5t-4 30v167h911zM163 247q-12 0 -21 -8.5t-9 -21.5t9 -21.5t21 -8.5q13 0 22 8.5t9 21.5t-9 21.5t-22 8.5zM316 123q-8 -26 -14 -48q-5 -19 -10.5 -37t-7.5 -25t-3 -15t1 -14.5
t9.5 -10.5t21.5 -4h37h67h81h80h64h36q23 0 34 12t2 38q-5 13 -9.5 30.5t-9.5 34.5q-5 19 -11 39h-368zM336 498v228q0 11 2.5 23t10 21.5t20.5 15.5t34 6h188q31 0 51.5 -14.5t20.5 -52.5v-227h-327z" />
    

    
    <glyph glyph-name="triangle" unicode="&#58881;" d="M932.8118 731.6091c5.4026 0 10.6404-2.8621 13.44-7.9227 2.8006-5.0616 2.4453-11.0182-0.426-15.5955L522.9302 33.50729999999999c-2.7136-4.3295-7.5305-7.2008-13.014-7.2008-5.4845 0-10.3014 2.8733-13.014 7.1997L74.0055 708.0909c-2.8703 4.5773-3.2246 10.5339-0.426 15.5955 2.8006 5.0606 8.0384 7.9227 13.44 7.9227H932.811776L932.8118 731.6091z"  horiz-adv-x="1024" />

    
    <glyph glyph-name="rocket" unicode="&#58882;" d="M768.518144 329.78636800000004c-12.030976 21.092352-11.401216 34.622464-84.045824 100.191232 0.405504 237.077504-162.635776 401.467392-172.710912 411.401216-0.001024 0.318464-0.002048 0.475136-0.002048 0.475136s-0.104448-0.099328-0.24576-0.24064l-0.241664 0.241664c0 0 0.002048-0.159744 0.004096-0.478208-10.0352-9.984-172.331008-175.113216-170.8544-412.19584-72.351744-65.896448-71.656448-79.423488-83.588096-100.580352-21.793792-38.611968-16.13824-193.016832 4.40832-228.056064s54.606848-9.619456 66.2784 0.150528c11.672576 9.776128 63.182848 74.218496 75.864064 71.325696 0 0 15.588352 2.95936 33.165312-13.571072 17.37216-16.335872 49.017856-31.6672 76.099584-33.849344-0.001024-0.031744 0.001024-0.062464-0.006144-0.090112 0.16384 0.019456 0.326656 0.032768 0.489472 0.050176 0.157696-0.011264 0.330752-0.029696 0.490496-0.041984 0 0.021504-0.00512 0.054272-0.002048 0.083968 27.07968 2.302976 58.648576 17.788928 75.94496 34.200576 17.50528 16.60928 33.114112 13.719552 33.114112 13.719552 12.657664 2.953216 64.464896-61.25056 76.174336-70.975488 11.723776-9.71776 45.889536-34.97984 66.277376 0.149504C785.521664 136.84223999999995 790.480896 291.268608 768.518144 329.78636800000004L768.518144 329.78636800000004zM512.464896 420.808704c-45.213696-0.1024-81.95072 36.467712-82.051072 81.681408-0.104448 45.220864 36.466688 81.957888 81.685504 82.056192 45.213696 0.108544 81.951744-36.460544 82.051072-81.678336C594.253824 457.652224 557.681664 420.917248 512.464896 420.808704L512.464896 420.808704zM573.14816 92.469248c-20.609024-15.521792-41.419776-20.734976-60.381184-20.513792-18.95936-0.300032-39.791616 4.811776-60.475392 20.236288-18.547712 13.212672-35.115008 11.408384-43.860992-0.103424-8.741888-11.508736-5.6576-81.337344 5.096448-96.342016 10.748928-14.998528 23.368704 9.777152 41.8816 10.713088 18.51904 0.923648 33.908736-36.169728 40.923136-57.368576 3.585024-10.83904 9.171968-20.744192 16.75264-21.4528 7.58784 0.738304 13.133824 10.671104 16.666624 21.527552 6.928384 21.229568 22.150144 58.389504 40.66304 57.550848 18.523136-0.851968 31.251456-25.565184 41.936896-10.508288 10.682368 15.051776 13.449216 84.887552 4.653056 96.360448C608.212992 104.041472 591.637504 105.77100800000005 573.14816 92.469248L573.14816 92.469248z"  horiz-adv-x="1024" />

    
    <glyph glyph-name="shangchuan" unicode="&#58930;" d="M961.081 168.031q0-22.404-7.617-42.119t-21.508-35.398-32.261-26.436-39.879-14.339l0.896-0.896h-613.856q-4.481-0.896-14.339-0.896-34.95 0-65.419 13.443t-53.32 36.294-35.845 53.32-12.994 65.419 12.994 65.419 35.845 53.32 53.32 36.294 65.419 13.443h0.896q-0.896 7.169-0.896 13.443v14.338q0 63.627 24.196 120.082t66.314 98.127 98.127 65.866 119.635 24.196 120.082-24.196 98.576-65.866 66.314-98.127 24.196-120.082q0-33.158-7.169-64.97t-19.715-60.489q4.481 0.896 9.41 1.344t9.41 0.449q24.196 0 46.151-9.41t38.086-25.989 25.54-38.534 9.41-47.048zM647.431 274.672q17.923 0 23.3 4.033t-7.169 19.267q-12.546 16.13-27.781 42.119t-31.813 52.873-33.605 50.184-33.158 34.053q-16.13 11.65-23.748 12.546t-21.955-10.754q-16.13-13.443-31.365-34.053t-30.917-43.911-31.365-45.704-31.813-39.43q-16.13-16.13-11.65-28.676t22.404-12.546h14.338q8.066 0 17.474-0.449t18.371-0.449h15.235q12.546-0.896 16.13-8.513t3.585-21.059q0-15.235-0.449-26.884t-0.449-22.404-0.449-22.404-0.449-26.884q0-6.274 1.344-13.443t4.929-13.443 10.754-10.305 18.819-4.033h20.611q8.066 0 24.196-0.896 21.508 0 24.644 10.754t3.136 34.053q0 20.611 0.449 37.189t0.449 45.255q0 20.611 4.033 31.813t17.474 11.202q9.858 0 28.228 0.449t28.228 0.449z"  horiz-adv-x="1024" />

    
    <glyph glyph-name="shoudong" unicode="&#59096;" d="M911.367757 469.639608c-21.904892 51.79055-53.260018 98.298793-93.192495 138.231271-39.932478 39.932478-86.440721 71.287603-138.231271 93.193519C626.310466 723.750073 569.352219 735.252035 510.651282 735.252035s-115.65816-11.501962-169.292708-34.187637c-51.79055-21.905916-98.298793-53.261041-138.231271-93.193519-39.932478-39.932478-71.287603-86.440721-93.193519-138.231271C87.24811 416.006084 75.746148 359.047838 75.746148 300.346901c0-58.699913 11.501962-115.65816 34.187637-169.292708 21.905916-51.791573 53.261041-98.299817 93.193519-138.232295 39.932478-39.932478 86.440721-71.287603 138.231271-93.192495C394.993123-123.056272 451.950346-134.558234 510.651282-134.558234s115.659183 11.501962 169.292708 34.187637c51.79055 21.904892 98.298793 53.260018 138.231271 93.192495s71.287603 86.440721 93.192495 138.232295C934.053432 184.687718 945.556417 241.646987 945.556417 300.346901 945.556417 359.047838 934.053432 416.006084 911.367757 469.639608zM781.996271 29.001913C709.517539-43.476819 613.151771-83.392924 510.651282-83.392924c-102.500489 0-198.866257 39.916105-271.344988 112.394836S126.911458 197.846412 126.911458 300.346901s39.916105 198.866257 112.394836 271.344988S408.150794 684.086725 510.651282 684.086725c102.500489 0 198.865233-39.916105 271.344988-112.394836S894.391107 402.847389 894.391107 300.346901 854.475002 101.480644 781.996271 29.001913zM753.143129 516.362746c0.924045 9.258874-3.246951 18.693758-11.609409 24.074302-11.881608 7.644097-27.712155 4.210905-35.356252-7.670703L526.848173 254.064808 324.110749 524.01503c-3.716648 9.547447-12.991895 16.308431-23.839965 16.308431-0.035816 0-0.072655 0-0.107447 0-14.128789-0.058328-25.535583-11.558244-25.477254-25.688055l0.005117-1.245364c-0.002047-0.218988-0.001023-0.436952 0.00307-0.655939l1.749854-424.420339c0.058328-14.092973 11.499915-25.477254 25.580608-25.477254 0.034792 0 0.071631 0 0.107447 0 14.128789 0.059352 25.535583 11.559267 25.477254 25.689079l-1.432629 347.540368 181.703365-241.944378c0.035816-0.048095 0.204661-0.088004 0.480954-0.122797 4.747117-6.166443 12.198833-10.143011 20.581758-10.143011 10.986215 0 20.37198 6.826476 24.165376 16.464997l149.755746 232.740762 3.239787-345.800747C706.235796 73.21181 717.663056 61.916557 731.680305 61.916557c0.080841 0 0.163729 0 0.24457 0.001023 14.128789 0.13303 25.474185 11.69332 25.342178 25.821085l-3.993964 426.322665C753.264902 514.83802 753.21783 515.604476 753.143129 516.362746z"  horiz-adv-x="1024" />

    
    <glyph glyph-name="caution" unicode="&#59265;" d="M505.088 769.632c-262.144 0-474.624-212.48-474.624-474.624s212.48-474.624 474.624-474.624c262.08 0 474.56 212.48 474.56 474.624S767.104 769.632 505.088 769.632zM554.688-3.488 455.296-3.488l0 99.52 99.392 0L554.688-3.488zM554.688 195.488 455.296 195.488 455.296 593.44l99.392 0L554.688 195.488z"  horiz-adv-x="1024" />

    
    <glyph glyph-name="check" unicode="&#58902;" d="M431.47 90.218c-11.365 0-22.332 4.378-30.589 12.286l-235.495 225.535c-17.64 16.894-18.245 44.891-1.35 62.528 16.894 17.64 44.891 18.245 62.532 1.351l201.055-192.552 364.692 443.171c15.519 18.86 43.39 21.567 62.253 6.049 18.861-15.519 21.568-43.39 6.048-62.251l-394.992-479.993c-7.821-9.504-19.248-15.319-31.534-16.047-0.874-0.052-1.748-0.078-2.621-0.078z"  horiz-adv-x="1024" />

    
    <glyph glyph-name="circle" unicode="&#58954;" d="M512 300.096191m-255.045767 0a249.237 249.237 0 1 0 510.091534 0 249.237 249.237 0 1 0-510.091534 0Z"  horiz-adv-x="1024" />

    
    <glyph glyph-name="sandian" unicode="&#59315;" d="M504.9784244148148 114.19751158518523m-78.60436385185184 0a3.070482962962963 3.070482962962963 0 1 1 157.2087277037037 0 3.070482962962963 3.070482962962963 0 1 1-157.2087277037037 0ZM504.9784244148148 378.2833189925925m-78.60436385185184 0a3.070482962962963 3.070482962962963 0 1 1 157.2087277037037 0 3.070482962962963 3.070482962962963 0 1 1-157.2087277037037 0ZM504.9784244148148 642.3691263999999m-78.60436385185184 0a3.070482962962963 3.070482962962963 0 1 1 157.2087277037037 0 3.070482962962963 3.070482962962963 0 1 1-157.2087277037037 0Z"  horiz-adv-x="1024" />

    
    <glyph glyph-name="cha" unicode="&#58995;" d="M944.128 793.92c-5.12-30.784-28.608-49.088-48.64-69.184-85.376-86.144-169.984-173.312-257.728-257.024C592.768 424.768 593.6 391.104 638.144 348.352c92.096-88.384 181.376-179.84 270.976-270.848 24.384-24.768 57.28-54.784 22.656-89.28-34.752-34.368-64.64-1.088-89.28 23.168-91.136 89.536-182.528 178.816-271.04 270.912C528.448 327.232 494.784 326.4 452.032 281.984c-88.512-92.096-179.904-181.44-270.912-270.976-24.704-24.192-54.784-57.28-89.28-22.336C57.792 23.296 90.88 53.248 115.2 77.952 204.8 169.024 294.08 260.352 386.304 348.8c44.8 43.072 44.032 76.672-0.384 119.36-92.16 88.384-181.504 179.84-271.04 270.848C90.56 763.712 57.6 793.792 92.224 828.16c34.688 34.432 64.64 1.088 89.344-23.104C272.512 715.52 363.968 626.24 452.416 534.144c43.072-44.8 76.8-44.032 119.488 0.384 90.688 94.272 184.704 185.6 277.824 277.568 20.736 20.544 44.096 39.68 76.032 22.656C940.992 826.56 946.624 811.456 944.128 793.92z"  horiz-adv-x="1024" />

    
    <glyph glyph-name="shuxian" unicode="&#59068;" d="M127.750569 852.647633c0 23.564695 18.926048 42.667775 42.638099 42.667775 23.548322 0 42.638099-19.079544 42.638099-42.667775l0-937.979858c0-23.564695-18.926048-42.667775-42.638099-42.667775-23.548322 0-42.638099 19.079544-42.638099 42.667775L127.750569 852.647633zM468.855364 852.647633c0 23.564695 18.926048 42.667775 42.638099 42.667775 23.548322 0 42.638099-19.079544 42.638099-42.667775l0-937.979858c0-23.564695-18.926048-42.667775-42.638099-42.667775-23.548322 0-42.638099 19.079544-42.638099 42.667775L468.855364 852.647633zM809.961182 852.647633c0 23.564695 18.926048 42.667775 42.638099 42.667775 23.548322 0 42.638099-19.079544 42.638099-42.667775l0-937.979858c0-23.564695-18.926048-42.667775-42.638099-42.667775-23.548322 0-42.638099 19.079544-42.638099 42.667775L809.961182 852.647633z"  horiz-adv-x="1024" />

    
    <glyph glyph-name="off" unicode="&#59414;" d="M512.282433-61.93739799000002c-247.529583 0-448.190719 200.661136-448.19071899 448.18560199 0 191.062524 119.757524 353.747743 288.11595299 418.226267l0-69.339228c-132.148739-60.736293-224.088708-193.907315-224.088708-348.887039 0-212.15081799 172.011632-384.16244999 384.163473-384.16244999 212.152864 0 384.158357 172.010609 384.158357 384.16244999 0 154.979724-91.94406201 288.15074601-224.093824 348.91773801l0 69.30852899c168.359452-64.478524 288.115953-227.16886 288.11595301-418.226267C960.468035 138.72373700000003 759.80792199-61.93739799000002 512.282433-61.93739799000002L512.282433-61.93739799000002 512.282433-61.93739799000002zM480.26829801 834.43892199l64.02212899 0 0-449.339892-64.02212901 0L480.26829801 834.43892199 480.26829801 834.43892199 480.26829801 834.43892199zM480.26829801 834.43892199"  horiz-adv-x="1024" />

    
    <glyph glyph-name="dianzan" unicode="&#58898;" d="M884.876 472.857h-237.905c92.186 340.464-63.517 357.853-63.517 357.853-65.993 0-52.312-52.182-57.303-60.882 0-166.502-176.85-296.972-176.85-296.972v-472.172c0-46.608 63.517-63.394 88.433-63.394h357.452c33.641 0 61.036 88.224 61.036 88.224 88.434 300.706 88.434 390.177 88.434 390.177 0.001 62.128-59.781 57.164-59.781 57.164v0 0zM251.671 472.7h-142.457c-29.42 0-29.873-28.896-29.873-28.896l29.42-476.203c0-30.309 30.361-30.309 30.361-30.309h123.297c25.686 0 25.459 20.050 25.459 20.050l-0 479.247c0 36.574-36.208 36.111-36.208 36.111v0 0zM251.671 472.7z"  horiz-adv-x="1024" />

    
    <glyph glyph-name="smile" unicode="&#59122;" d="M511.99937862162966-78.42322113422222c-254.9849626548148 0-462.4343986631111 207.4382584794074-462.4343986631111 462.40956051911104 0 254.98620541155555 207.45067755140738 462.4244626773334 462.4343986631111 462.4244626773334 254.9824795685926 0 462.4232211342222-207.4382584794074 462.4232211342222-462.4244626773334C974.4225997558518 129.01627888829626 766.9830997333335-78.42322113422222 511.99937862162966-78.42322113422222zM511.99937862162966 771.8474838471111C298.1304863099259 771.8474838471111 124.12705663051855 597.8564732397037 124.12705663051855 383.9850966281482c0-213.8564732397037 174.0034296794074-387.846242304 387.8723219911111-387.846242304 213.87013385481478 0 387.85990291911105 173.9897690642963 387.85990291911105 387.846242304C899.8580399976297 597.8564732397037 725.869513690074 771.8474838471111 511.99937862162966 771.8474838471111zM421.38058752000006 468.41791192177783c0-46.625204906666674-28.966419266370366-84.41915346488891-64.73232110933334-84.41915346488891-35.752241227851854 0-64.71990203733333 37.793948558222226-64.71990203733333 84.41915346488891 0 46.62644644977777 28.96766080948148 84.41666916503704 64.71990203733333 84.41666916503704C392.41292671051843 552.833338330074 421.38058752000006 515.0431156148148 421.38058752000006 468.41791192177783zM732.0567322548147 468.41791192177783c0-46.625204906666674-28.96766080948148-84.41915346488891-64.73107956622222-84.41915346488891-35.752241227851854 0-64.71866049422222 37.793948558222226-64.71866049422222 84.41915346488891 0 46.62644644977777 28.966419266370366 84.41666916503704 64.71866049422222 84.41666916503704C703.0890714453333 552.833338330074 732.0567322548147 515.0431156148148 732.0567322548147 468.41791192177783zM511.99937862162966 94.34326144948147c-111.10293321955555 0-210.95660233007405 66.20274870044445-254.39008631466666 168.64953533629628l68.64062721896296 29.103029058370364c31.734646556444442-74.82908732681481 104.64621848651852-123.18924739318517 185.7494590957037-123.18924739318517 81.10324060918518 0 154.00363501037037 48.36015885274074 185.7382815668148 123.18924739318517l68.64062721896296-29.103029058370364C722.9435618797038 160.54476739318523 623.0923770690371 94.34326144948147 511.99937862162966 94.34326144948147z"  horiz-adv-x="1024" />

    
    <glyph glyph-name="fork" unicode="&#58899;" d="M896-128h-768c-70.605 0-128 57.395-128 128v768c0 70.554 57.395 128 128 128h768c70.605 0 128-57.446 128-128v-768c0-70.605-57.395-128-128-128zM128 844.8c-42.342 0-76.8-34.458-76.8-76.8v-768c0-42.342 34.458-76.8 76.8-76.8h768c42.342 0 76.8 34.458 76.8 76.8v768c0 42.342-34.458 76.8-76.8 76.8h-768zM244.263 709.296l614.41-614.41-36.204-36.204-614.41 614.41 36.204 36.204zM822.433 709.296l36.204-36.204-614.41-614.41-36.204 36.204 614.41 614.41z"  horiz-adv-x="1024" />

    
    <glyph glyph-name="adder" unicode="&#59146;" d="M949.02760747 422.33550613l-397.0035104 0.00327467L552.02082347 819.3422912c0.00764053 21.9222208-17.773328 39.69991467-39.6955488 39.69991467-21.9342272 0-39.69991467-17.77769387-39.69991467-39.69991467l0.00545813-397.00241813-397.00896746 0.00327466c-21.91785387 0-39.69991467-17.77769387-39.69991467-39.6955488 0-21.92658667 17.78096853-39.70318933 39.7075552-39.70318933l397.00132693 0 0.00545814-396.99914347c-0.019648-21.91458027 17.75368-39.6955488 39.6955488-39.6955488 21.92658667 0 39.6955488 17.76896213 39.6955488 39.6955488l-0.00327467 396.99914347 397.00241813 0c21.9222208 0 39.6955488 17.773328 39.6955488 39.69118187C988.72315627 404.566544 970.94218773 422.34751253 949.02760747 422.33550613z"  horiz-adv-x="1024" />

    
    <glyph glyph-name="d-arrow-r" unicode="&#59264;" d="M511.95037-0.6679629999999861L476.573651 34.709779000000026 825.863872 384.016373 476.573651 733.290221 511.95037 768.667963 896.617309 384.016373ZM162.759409-0.6679629999999861L127.380644 34.709779000000026 476.670865 384.016373 127.380644 733.290221 162.759409 768.667963 547.425326 384.016373Z"  horiz-adv-x="1024" />

    
    <glyph glyph-name="sub" unicode="&#58904;" d="M912.20713245 347.59013261999996L115.39803705 347.59013261999996c-20.09852814 0-36.40986738 16.31133923-36.40986738 36.40986738s16.31133923 36.40986738 36.40986738 36.40986738l796.80909653 0c20.13375829 0 36.4079104-16.31133923 36.4079104-36.40986738S932.34089187 347.59013261999996 912.20713245 347.59013261999996z"  horiz-adv-x="1024" />

    
    <glyph glyph-name="fanhui" unicode="&#59093;" d="M801.009811 479.060029c51.912323-30.944779 115.608018-114.424052 142.109602-214.915791 26.501584-100.489692 22.107507-190.477192 22.107507-190.477192s-34.30941 55.416124-48.220235 74.841545-72.528873 91.801822-163.516144 133.751237S510.41848 316.738084 510.41848 316.738084l0-174.679391-419.146219 296.895921 419.146219 296.894897 0-176.285982c0 0 100.689237-7.577582 153.318898-18.476817C752.385371 522.728598 801.009811 479.060029 801.009811 479.060029z"  horiz-adv-x="1024" />

    
    <glyph glyph-name="jiahao" unicode="&#59187;" d="M720.825073 406.332634 538.158776 406.332634 538.158776 588.998931c0 16.813944-13.630439 30.444383-30.444383 30.444383-16.814967 0-30.444383-13.630439-30.444383-30.444383l0-182.666296L294.603715 406.332634c-16.814967 0-30.444383-13.630439-30.444383-30.444383 0-16.812921 13.630439-30.444383 30.444383-30.444383l182.666296 0L477.270011 162.777573c0-16.812921 13.630439-30.444383 30.444383-30.444383 16.812921 0 30.444383 13.630439 30.444383 30.444383L538.158776 345.443869l182.666296 0c16.813944 0 30.444383 13.631462 30.444383 30.444383C751.269455 392.702196 737.639017 406.332634 720.825073 406.332634zM512.154519 890.905982c-280.233426 0-507.407402-227.172953-507.407402-507.406378 0-280.232402 227.173976-507.405355 507.407402-507.405355 280.232402 0 507.406378 227.172953 507.406378 507.405355C1019.560898 663.733029 792.386922 890.905982 512.154519 890.905982zM512.470721-90.291167c-263.419482 0-476.961996 213.543537-476.961996 476.961996 0 263.418458 213.543537 476.960972 476.961996 476.960972s476.961996-213.543537 476.961996-476.960972C989.43374 123.252371 775.890202-90.291167 512.470721-90.291167z"  horiz-adv-x="1024" />

    
    <glyph glyph-name="stop" unicode="&#58905;" d="M816.07032 384c0-23.367197-12.81998-43.793412-31.927153-54.902424l0.013303 0L308.412209 53.20194500000002c-0.169869-0.091074-0.339738-0.196475-0.509606-0.287549l-0.248663-0.144286 0 0c-9.683547-5.633301-20.97573-8.874111-33.050744-8.874111-35.887348 0-64.97892 28.555359-64.97892 63.775512l0 0L209.624275 660.327466l0 0c0 35.220153 29.091572 63.775512 64.97892 63.775512 12.075013 0 23.367197-3.240811 33.050744-8.874111l0 0 0.248663-0.144286c0.169869-0.104377 0.339738-0.195451 0.509606-0.287549l475.744261-275.895631-0.013303 0C803.25034 427.793412 816.07032 407.367197 816.07032 384L816.07032 384z"  horiz-adv-x="1024" />

    
    <glyph glyph-name="zidong" unicode="&#58890;" d="M946.827363 365.937622c0 58.700937-11.501962 115.659183-34.187637 169.292708-21.904892 51.791573-53.260018 98.299817-93.192495 138.231271-39.932478 39.932478-86.440721 71.287603-138.232295 93.193519-53.633524 22.685675-110.591771 34.187637-169.292708 34.187637s-115.65816-11.501962-169.292708-34.187637c-51.791573-21.905916-98.299817-53.260018-138.231271-93.193519-39.932478-39.932478-71.287603-86.440721-93.193519-138.231271-22.684652-53.633524-34.187637-110.591771-34.187637-169.292708 0-58.699913 11.501962-115.65816 34.187637-169.292708 21.905916-51.791573 53.261041-98.299817 93.193519-138.232295s86.440721-71.287603 138.231271-93.192495c53.633524-22.685675 110.591771-34.187637 169.292708-34.187637s115.65816 11.501962 169.292708 34.187637c51.791573 21.904892 98.299817 53.260018 138.232295 93.192495s71.287603 86.440721 93.192495 138.232295C935.324378 250.278439 946.827363 307.236686 946.827363 365.937622zM783.267217 94.591611c-72.478731-72.478731-168.844499-112.394836-271.344988-112.394836s-198.865233 39.916105-271.344988 112.394836S128.182404 263.437134 128.182404 365.937622s39.916105 198.866257 112.394836 271.346011c72.478731 72.478731 168.844499 112.394836 271.344988 112.394836s198.866257-39.916105 271.344988-112.394836 112.394836-168.845523 112.394836-271.346011S855.745948 167.071366 783.267217 94.591611zM541.009707 638.92297c-0.014326 0.029676-0.029676 0.057305-0.044002 0.086981-0.14224 0.295735-0.292666 0.588401-0.447185 0.87902-0.045025 0.084934-0.086981 0.170892-0.13303 0.254803-0.168846 0.310062-0.345877 0.615007-0.527003 0.917906-0.037862 0.063445-0.072655 0.127913-0.11154 0.191358-0.191358 0.313132-0.390903 0.621147-0.596588 0.927115-0.031722 0.048095-0.062422 0.098237-0.095167 0.146333-0.209778 0.308015-0.428765 0.610914-0.652869 0.910743-0.029676 0.039909-0.058328 0.082888-0.088004 0.122797-0.214894 0.283456-0.437975 0.560772-0.665149 0.836041-0.041956 0.051165-0.081864 0.104377-0.12382 0.155543-0.150426 0.179079-0.309038 0.352017-0.464581 0.527003-1.25662 1.418302-2.650363 2.681062-4.157693 3.767813 0 0-0.001023 0.001023-0.002047 0.001023-0.344854 0.248663-0.694825 0.487094-1.050935 0.717338-0.033769 0.022513-0.069585 0.042979-0.104377 0.064468-0.324388 0.207731-0.652869 0.409322-0.985444 0.601704-0.066515 0.037862-0.134053 0.073678-0.201591 0.11154-0.300852 0.170892-0.603751 0.337691-0.911766 0.49528-0.027629 0.014326-0.053212 0.029676-0.080841 0.044002-0.086981 0.045025-0.176009 0.082888-0.26299 0.125867-0.25685 0.127913-0.514723 0.252757-0.774643 0.37146-0.170892 0.077771-0.342808 0.150426-0.514723 0.224104-0.200568 0.085958-0.400113 0.171915-0.602727 0.252757-0.225127 0.090051-0.451278 0.174985-0.677429 0.257873-0.148379 0.054235-0.296759 0.109494-0.446162 0.160659-0.270153 0.094144-0.541329 0.182149-0.813528 0.26606-0.109494 0.033769-0.217964 0.067538-0.327458 0.100284-0.301875 0.089028-0.604774 0.171915-0.907673 0.249687-0.085958 0.022513-0.172939 0.044002-0.258896 0.065492-0.319272 0.077771-0.639566 0.150426-0.959861 0.215918-0.079818 0.016373-0.160659 0.031722-0.240477 0.048095-0.319272 0.062422-0.639566 0.11768-0.959861 0.167822-0.094144 0.014326-0.189312 0.028653-0.284479 0.041956-0.301875 0.042979-0.604774 0.081864-0.907673 0.113587-0.124843 0.013303-0.249687 0.024559-0.37453 0.036839-0.26913 0.024559-0.538259 0.046049-0.807389 0.062422-0.168846 0.010233-0.337691 0.017396-0.506537 0.024559-0.225127 0.00921-0.450255 0.016373-0.675382 0.01842-0.215918 0.00307-0.430812 0.002047-0.64673 0-0.178055-0.002047-0.356111-0.005117-0.535189-0.011256-0.260943-0.008186-0.520863-0.022513-0.781806-0.038886-0.134053-0.008186-0.268106-0.017396-0.402159-0.027629-0.295735-0.023536-0.590448-0.053212-0.886183-0.086981-0.103354-0.01228-0.205685-0.023536-0.309038-0.036839-0.314155-0.039909-0.627287-0.085958-0.941442-0.138146-0.089028-0.014326-0.177032-0.029676-0.265036-0.045025-0.316202-0.055259-0.63138-0.11768-0.947582-0.185218-0.092098-0.019443-0.183172-0.039909-0.275269-0.061398-0.301875-0.068562-0.602727-0.14224-0.903579-0.222057-0.112564-0.029676-0.224104-0.061398-0.336668-0.093121-0.273223-0.076748-0.545422-0.156566-0.817622-0.242524-0.149403-0.047072-0.297782-0.097214-0.447185-0.147356-0.231267-0.077771-0.461511-0.156566-0.690732-0.2415-0.199545-0.073678-0.397043-0.151449-0.594541-0.230244-0.180102-0.071631-0.360204-0.14224-0.538259-0.217964-0.25378-0.107447-0.50449-0.221034-0.754177-0.336668-0.097214-0.045025-0.195451-0.083911-0.292666-0.130983-0.030699-0.014326-0.059352-0.030699-0.089028-0.045025-0.293689-0.141216-0.584308-0.290619-0.87288-0.444115-0.085958-0.045025-0.173962-0.088004-0.258896-0.135076-0.313132-0.169869-0.621147-0.348947-0.927115-0.532119-0.059352-0.035816-0.12075-0.068562-0.179079-0.104377-0.328481-0.200568-0.651846-0.409322-0.971118-0.62524-0.032746-0.021489-0.066515-0.041956-0.098237-0.064468-0.344854-0.234337-0.684592-0.477884-1.01819-0.730641-0.004093-0.00307-0.00921-0.00614-0.014326-0.010233-0.89744-0.679475-1.750877-1.425466-2.560312-2.226714-0.694825-0.688685-1.349741-1.409093-1.954515-2.164293-0.01842-0.023536-0.035816-0.048095-0.054235-0.071631-0.245593-0.309038-0.484024-0.62217-0.714268-0.940418-0.029676-0.040932-0.057305-0.083911-0.086981-0.125867-0.216941-0.304945-0.429789-0.61296-0.632403-0.927115-0.039909-0.061398-0.077771-0.12689-0.11768-0.189312-0.188288-0.295735-0.372483-0.594541-0.548492-0.89744-0.052189-0.091074-0.102331-0.184195-0.153496-0.276293-0.155543-0.277316-0.309038-0.554632-0.455371-0.837064-0.016373-0.031722-0.034792-0.062422-0.051165-0.094144L254.435876 168.829406c-6.432503-12.579503-1.450025-27.991518 11.129478-34.425044 3.729951-1.906419 7.706519-2.809999 11.626805-2.809999 9.30083 0 18.273179 5.090948 22.798239 13.9405l74.933643 146.537448 274.933723 0 69.639057-145.910161c4.387937-9.195429 13.551644-14.56881 23.105231-14.56881 3.692089 0 7.445576 0.804319 11.001565 2.50096 12.750395 6.084579 18.153452 21.355377 12.06785 34.106796L541.009707 638.92297zM401.088958 343.238644l116.042923 226.928383 108.306728-226.928383L401.088958 343.238644z"  horiz-adv-x="1024" />

    
    <glyph glyph-name="xiangshang" unicode="&#58938;" d="M511.998974 895.997947C229.247513 895.997947 0.002053 666.753514 0.002053 384.001026c-0.001026-282.750435 229.24546-511.998974 511.996921-511.998974 282.753514 0 511.996921 229.248539 511.996921 511.998974C1023.996921 666.753514 794.750435 895.997947 511.998974 895.997947zM541.091329 85.211209c0-16.069144-13.02629-29.094408-29.093381-29.094408-16.067092 0-29.093381 13.02629-29.091329 29.092355l-0.001026 527.345632L332.075462 461.722606c-11.362726-11.360673-29.783027-11.360673-41.144726 0s-11.359647 29.782 0.001026 41.140621l200.426089 200.426089c0.3674 0.370479 0.746089 0.731722 1.132989 1.082702 0.087232 0.079022 0.176516 0.15086 0.263748 0.228855 0.26888 0.236039 0.536733 0.472079 0.814849 0.698882 0.165228 0.136492 0.335586 0.264775 0.504919 0.397162 0.202173 0.158044 0.403319 0.319166 0.609597 0.472079 0.204225 0.151886 0.412556 0.295562 0.620886 0.441291 0.177543 0.125203 0.354059 0.251433 0.53468 0.372532 0.222698 0.149834 0.449501 0.290431 0.675278 0.433081 0.174464 0.10981 0.346875 0.220645 0.523391 0.327376 0.227829 0.136492 0.456685 0.265801 0.687593 0.395109 0.185753 0.104678 0.369453 0.210383 0.557258 0.310956 0.218593 0.116993 0.439238 0.226803 0.659884 0.337639 0.20833 0.104678 0.416661 0.210383 0.627043 0.310956 0.060549 0.027709 0.11802 0.060549 0.178569 0.087232 0.141624 0.06568 0.2853 0.123151 0.426923 0.185753 0.238092 0.105705 0.475157 0.211409 0.716328 0.310956 0.179595 0.073891 0.360216 0.14265 0.538785 0.213462 0.267853 0.104678 0.535707 0.20833 0.807665 0.304799 0.157017 0.056444 0.316087 0.106731 0.474131 0.160096 0.294536 0.099547 0.590098 0.197041 0.889765 0.287352 0.141624 0.042077 0.283247 0.081074 0.425897 0.121098 0.316087 0.089284 0.631149 0.177543 0.951341 0.256564 0.131361 0.03284 0.263748 0.060549 0.396135 0.091337 0.328402 0.076969 0.656805 0.15086 0.988286 0.21654 0.13444 0.025656 0.270932 0.047208 0.405372 0.071838 0.32635 0.059523 0.653726 0.11802 0.984181 0.166254 0.160096 0.023604 0.320192 0.040024 0.479262 0.061575 0.306851 0.040024 0.61165 0.080048 0.919527 0.10981 0.215514 0.021551 0.431028 0.03284 0.647569 0.04926 0.254512 0.019499 0.509024 0.043103 0.767641 0.055418 0.403319 0.019499 0.805612 0.027709 1.209958 0.030788 0.072864 0 0.146755 0.005131 0.219619 0.005131 0.040024 0 0.079022-0.003079 0.11802-0.003079 0.441291-0.002053 0.881555-0.012315 1.320794-0.033867 0.226803-0.011289 0.450527-0.031814 0.675278-0.048234 0.248354-0.017446 0.496709-0.031814 0.746089-0.056444 0.272985-0.026683 0.544943-0.063628 0.815875-0.097494 0.196015-0.02463 0.393057-0.046182 0.589072-0.074917 0.292483-0.043103 0.580862-0.095442 0.870267-0.146755 0.176516-0.031814 0.35098-0.059523 0.527496-0.094416 0.290431-0.05747 0.578809-0.124177 0.866162-0.189858 0.174464-0.040024 0.35098-0.077996 0.523391-0.121098 0.27709-0.068759 0.549048-0.144702 0.822032-0.221672 0.188831-0.052339 0.376637-0.103652 0.563416-0.15907 0.248354-0.075943 0.494656-0.157017 0.739932-0.239118 0.212435-0.069786 0.422818-0.139571 0.633201-0.213462 0.214488-0.076969 0.426923-0.160096 0.641411-0.242197 0.236039-0.091337 0.473105-0.182674 0.709144-0.280168 0.180621-0.074917 0.35919-0.153939 0.536733-0.232961 0.262722-0.115967 0.527496-0.231934 0.788166-0.356111 0.144702-0.068759 0.288378-0.14265 0.433081-0.214488 0.286326-0.141624 0.571626-0.284273 0.851794-0.43616 0.11802-0.064654 0.236039-0.131361 0.355085-0.197041 0.296588-0.166254 0.593177-0.333534 0.887713-0.511076 0.102626-0.061575 0.20012-0.12623 0.300694-0.188831 0.302746-0.186779 0.601387-0.37561 0.895923-0.574704 0.096468-0.063628 0.188831-0.131361 0.282221-0.196015 0.290431-0.201147 0.580862-0.404346 0.868214-0.617807 0.104678-0.077996 0.206278-0.160096 0.308904-0.239118 0.270932-0.206278 0.538785-0.412556 0.801507-0.630122 0.130335-0.105705 0.252459-0.217567 0.380742-0.32635 0.230908-0.197041 0.464895-0.393057 0.691698-0.599335 0.20833-0.188831 0.406398-0.384847 0.609597-0.578809 0.140597-0.133414 0.282221-0.261696 0.418713-0.399214l200.498954-200.495875c11.360673-11.363752 11.360673-29.784053 0-41.144726-11.360673-11.360673-29.782-11.359647-41.140621 0.001026L541.091329 612.558894 541.091329 85.211209z"  horiz-adv-x="1024" />

    
    <glyph glyph-name="setting" unicode="&#59296;" d="M660.91918222-98.97870221999995h-0.00682666c-18.51505778 0.00910222-36.51925333 7.66065778-48.14165334 20.48910222-15.83900445 17.36704-66.02638222 62.52657778-107.1047111 62.52657778-40.79729778 0-91.76177778-45.42122667-106.3992889-61.32849778-11.59623111-12.61112889-29.47299555-20.13866667-47.80942222-20.13866666-8.73927111 0-16.97905778 1.67253333-24.50773333 4.98119111l-1.31982222 0.57230222-124.86542223 69.82997333-1.24245333 0.86584889c-22.72824889 15.91409778-31.37991111 47.03914667-20.11591111 72.40135111 0.08760889 0.19000889 11.51772445 26.56824889 11.51772444 50.61973334 0 72.98389333-59.38062222 132.36565333-132.36337777 132.36565333h-4.42595556c-0.27306667-0.01024-0.54499555-0.01592889-0.80099555-0.01592889-20.91008 0-37.93009778 18.57194667-43.37550222 47.31676444-0.43121778 2.30513778-10.6496 56.81834667-10.6496 99.76945778 0 42.95452445 10.21496889 97.47342222 10.6496 99.77742222 5.50684445 29.10663111 22.89777778 47.80373333 44.17763555 47.30311112h4.42595555c72.98389333 0 132.36337778 59.38062222 132.36337778 132.35996444 0 24.04352-11.42442667 50.41607111-11.54616888 50.68117334-11.25148445 25.33376-2.54293333 56.45539555 20.28885333 72.31715555l1.29365333 0.89656889 131.77742222 72.38656 1.37216 0.58254222c7.42286222 3.16302222 15.54773333 4.76728889 24.15729778 4.76728889 18.30229333 0 36.20864-7.36483555 47.91637334-19.70176 15.59779555-16.32711111 64.89429333-58.80149333 104.79843555-58.80149333 39.53095111 0 88.53048889 41.63128889 104.07367111 57.67623111 11.64288 12.0832 29.42293333 19.32288 47.53863111 19.32288 8.78364445 0 17.06211555-1.66115555 24.60785778-4.93795556l1.3312-0.58254222 127.27864889-70.71061333 1.25610666-0.88064c22.77489778-15.88906667 31.44704-47.01752889 20.17393778-72.39111112-0.08192-0.19342222-11.51886222-26.5728-11.51886222-50.62314666 0-72.98048 59.38062222-132.35996445 132.36224-132.35996444h4.43278222c21.24572445 0.47331555 38.66168889-18.19306667 44.17080889-47.30311112 0.43235555-2.30286222 10.6496-56.81607111 10.6496-99.76945778 0-42.9568-10.21724445-97.47342222-10.65756444-99.77628444-5.50343111-29.10890667-22.91939555-47.73546667-44.17308445-47.30083556h-4.42254222c-72.98161778 0-132.36224-59.38176-132.36224-132.36565333 0-24.03896889 11.42556445-50.40810667 11.54275556-50.66979555 11.24352-25.32352 2.55203555-56.44970667-20.23651556-72.32512l-1.27317333-0.89429334L686.32689778-93.58222221999995l-1.34599111-0.58481778c-7.40807111-3.18919111-15.49767111-4.81166222-24.06172445-4.81166222z m-3.93102222 60.97806222c0.57571555-0.37774222 2.21411555-1.01944889 3.93102222-1.01944888 0.07054222 0 0.13425778 0 0.19342223 0.0045511l120.92302222 66.83306667c-2.91953778 6.77774222-16.26453333 39.69137778-16.26453333 74.01244445 0 102.66396445 80.85617778 186.79808 182.23445333 192.05916444 1.45635555 8.05774222 9.37756445 53.38225778 9.37756445 87.38247111 0 34.00021333-7.92120889 79.30311111-9.37756445 87.38474667-101.376 5.26449778-182.23445333 89.39861333-182.23445333 192.05688889 0 34.37568 13.38595555 67.328 16.27932444 74.05795555l-118.96035556 66.09237334c-0.13653333 0.00568889-0.30492445 0.01820445-0.49948444 0.01820444-2.02524445 0-3.91736889-0.73955555-4.54656-1.16394666-2.00021333-2.05255111-19.23982222-19.53905778-44.01152-36.9618489-36.66602667-25.79342222-71.33525333-38.87445333-103.05422222-38.87445333-32.01934222 0-66.9696 13.33930667-103.87000889 39.64017778-24.92416 17.75957333-42.24796445 35.58286222-44.24817778 37.67296-0.63374222 0.42894222-2.55431111 1.19011555-4.59662222 1.19011555-0.15928889 0-0.29923555-0.00568889-0.42325333-0.01251555l-123.22019556-67.67729778c2.95822222-6.86421333 16.25088-39.71868445 16.25088-73.984 0-102.65713778-80.85390222-186.79125333-182.23331556-192.05688889-1.45635555-8.06229333-9.37642667-53.37998222-9.37642666-87.38360888 0-33.9968 7.91893333-79.29742222 9.38439111-87.37564445 101.36917333-5.26791111 182.22648889-89.39747555 182.22648889-192.05802667 0-34.44963555-13.43943111-67.45429333-16.30208-74.09664l116.62449778-65.21287111c0.07281778-0.01024 0.16270222-0.01024 0.26168888-0.01024 1.70097778 0 3.31548445 0.62577778 3.89461334 0.99783111 2.17998222 2.33813333 19.59594667 20.77809778 44.68849778 39.168 37.39420445 27.40906667 72.93155555 41.30133333 105.62673778 41.30133334 33.00010667 0 68.80938667-14.15736889 106.42204444-42.09095112 25.23591111-18.73464889 42.72810667-37.51594667 44.90012444-39.89390222zM506.09038222 205.67039999999997c-97.19352889 0-176.26794667 79.07669333-176.26794666 176.27363556 0 97.19352889 79.07555555 176.26908445 176.26794666 176.26908444 97.19808 0 176.27818667-79.07555555 176.27818667-176.26908444 0-97.19694222-79.08010667-176.27363555-176.27818667-176.27363556z m0 292.58638222c-64.13425778 0-116.30819555-52.17621333-116.30819555-116.3104711 0-64.13880889 52.17507555-116.31616 116.30819555-116.31616 64.13994667 0 116.32412445 52.17735111 116.32412445 116.31502222 0 64.13539555-52.18190222 116.31160889-116.32412445 116.31160888z"  horiz-adv-x="1024" />

    
    <glyph glyph-name="banben" unicode="&#58948;" d="M191.838 704.162v-640.323h640.323v640.323h-640.323zM544.304 323.238l-98.473 75.236-102.233-75.758h-0.801v317.463h201.508v-316.941z"  horiz-adv-x="1024" />

    
    <glyph glyph-name="duigou" unicode="&#58903;" d="M548.20202 779.636364C356.331313 779.636364 200.921212 624.09697 200.921212 432.355556 200.921212 240.484848 356.331313 84.945455 548.20202 84.945455c191.870707 0 347.280808 155.539394 347.280808 347.280808C895.482828 624.09697 740.072727 779.636364 548.20202 779.636364L548.20202 779.636364zM732.444444 481.745455 527.773737 277.074747c-11.248485-11.248485-29.608081-11.248485-40.985859 0l-122.828283 122.828283c-11.248485 11.248485-11.248485 29.608081 0 40.985859 11.248485 11.248485 29.608081 11.248485 40.985859 0l102.270707-102.270707 184.242424 184.242424c11.248485 11.248485 29.608081 11.248485 40.985859 0C743.692929 511.353535 743.692929 492.993939 732.444444 481.745455L732.444444 481.745455z"  horiz-adv-x="1024" />

    
    <glyph glyph-name="sousuo" unicode="&#58883;" d="M908.121753 45.671065l-0.021675 0.021675v-0.0289h0.021675c7.50678-8.529119 11.271008-17.972201 11.271008-28.329246 0-11.585296-4.233853-21.476328-12.697947-29.720059-8.001693-8.045043-19.063176-12.517322-30.565385-12.354759a46.792747 46.792747 0 0 0-14.569223 2.301164 39.090891 39.090891 0 0 0-12.697947 6.824017l-4.703478 3.670303-232.287533 227.645467c-55.769816-38.411741-118.161349-57.59413-187.124024-57.59413a257.824314 257.824314 0 0 0-21.143978 0.888676 236.521386 236.521386 0 0 0-21.162041 2.752727c-47.768122 5.306766-93.549369 21.609991-133.554223 47.56221-43.870232 27.418895-78.969308 63.670359-105.300839 108.790517a292.648839 292.648839 0 0 0-29.629747 66.744599 318.969534 318.969534 0 0 0-13.167572 72.228378 301.546433 301.546433 0 0 0 4.233853 73.138728 296.803217 296.803217 0 0 0 41.392055 110.181331c20.865815 33.943075 48.335285 63.598109 80.869484 87.314189 27.592295 21.342666 58.464743 37.797615 92.628181 49.379298a324.37745 324.37745 0 0 0 104.838439 17.386976c15.056911 0 29.463572-0.910351 43.281394-2.75634 36.973965-4.869654 72.376491-15.837212 106.240091-32.902674a312.792154 312.792154 0 0 0 88.419614-65.834248c29.441897-29.879009 51.85025-65.21651 67.207-106.063078 15.363974-40.842955 22.122966-82.289198 20.230014-124.338728-2.503464-70.104226-27.26717-133.185748-74.294729-189.259014l233.197883-227.652692h-0.91035v0.003613z m-206.891639 417.811218a250.346433 250.346433 0 0 1-18.799464 109.711706 256.722501 256.722501 0 0 1-32.927962 60.346856c-13.792535 18.889776-29.929584 35.792676-48.403923 50.744825a279.51378 279.51378 0 0 1-59.700218 37.049827c-45.792084 20.652678-96.565808 28.560446-146.692895 22.845467-2.846652-0.036125-5.682467-0.339575-8.467707-0.910351l-5.657179-0.910351c-40.051817-6.054554-78.160107-20.898328-111.431256-43.422281-33.440937-22.104904-61.26082-51.3445-81.335497-85.493488-23.174204-37.158202-35.872151-78.622508-38.093841-124.335116-2.200014-45.712608 6.404967-88.090877 25.861907-127.091456 16.252649-35.304988 40.521442-66.563974 70.974839-91.436054 30.164397-25.153856 65.628336-43.577619 103.899189-53.95634 40.127679-10.963946 80.562422-13.102547 121.300614-6.394129a279.307867 279.307867 0 0 1 62.08447 18.275651 286.449785 286.449785 0 0 1 55.935991 31.537148 282.136457 282.136457 0 0 1 47.031172 42.981556 247.702081 247.702081 0 0 1 35.268863 52.565526v-0.021675a257.181288 257.181288 0 0 1 29.152897 107.912679z"  horiz-adv-x="1024" />

    
    <glyph glyph-name="shijian" unicode="&#59261;" d="M511.99741093 866.43169406c-267.17587026 0-483.76636302-216.5917873-483.76636303-483.76636302 0-267.17328118 216.59049277-483.76636302 483.76636303-483.76636302s483.77024663 216.59437637 483.77024664 483.76636302c0 267.17328118-216.5917873 483.76636302-483.77024664 483.76636302zM511.99741093-36.60584074999997c-231.55406064 0-419.2646991 187.71322754-419.26469911 419.26599364 0 231.55406064 187.71322754 419.26599363 419.26469911 419.26599364s419.2646991-187.71322754 419.2646991-419.26599364c0-231.55406064-187.71193299-419.26599363-419.2646991-419.26599364zM721.62976048 350.41061547000004h-209.63234955v209.63493863c0 8.91160146-7.21187271 16.12606325-16.12606325 16.12606323h-32.25083197c-8.912896 0-16.12606325-7.21446178-16.12606325-16.12606323v-258.00924477c0-8.91160146 7.21187271-16.12347417 16.12606325-16.12347416h258.01053931c8.912896 0 16.12606325 7.21187271 16.12606324 16.12347416v32.25083197c-0.00129454 8.91160146-7.21446178 16.12347417-16.12735778 16.12347417z"  horiz-adv-x="1024" />

    
    <glyph glyph-name="sign" unicode="&#59156;" d="M936.202886 543.677723H87.797114c-13.647835 0-24.710798 11.062963-24.710799 24.710798 0 13.646811 11.063987 24.710798 24.710799 24.710798h848.405772c13.647835 0 24.709775-11.063987 24.709775-24.710798 0-13.647835-11.06194-24.710798-24.709775-24.710798zM936.202886 174.90068099999996H87.797114c-13.647835 0-24.710798 11.063987-24.710799 24.709775 0 13.647835 11.063987 24.710798 24.710799 24.710798h848.405772c13.647835 0 24.709775-11.063987 24.709775-24.710798 0-13.645788-11.06194-24.709775-24.709775-24.709775z"  horiz-adv-x="1024" />

    
    <glyph glyph-name="jiantou2" unicode="&#59416;" d="M711.532 406.516l15.805-9.287-283.719-487.358-15.805 9.287 283.719 487.358zM442.602 880.090l285.87-487.358-15.916-9.287-285.888 487.367 15.934 9.281z"  horiz-adv-x="1024" />

    
    <glyph glyph-name="remove" unicode="&#59176;" d="M961.38666667 646.29333333H676.8c-43.73333333 0-59.84 10.24-96.32 61.12l-76.90666667 104.85333334c-5.44 7.46666667-13.97333333 11.84-23.14666666 11.84H145.6C83.84 824.10666667 34.13333333 773.33333333 34.13333333 731.30666667v-655.46666667c0-79.36 45.86666667-134.82666667 111.46666667-134.82666667h733.12c61.44 0 111.46666667 51.09333333 111.46666667 113.81333334V616.74666667c0.10666667 16.32-12.90666667 29.54666667-28.8 29.54666666z m-28.90666667-591.46666666c0-30.18666667-24.10666667-54.82666667-53.65333333-54.82666667H145.6c-32.64 0-53.76 29.76-53.76 75.94666667V731.09333333c0.96 8.74666667 23.36 34.02666667 53.76 34.02666667h320.32l68.05333333-92.8c41.38666667-57.6 73.28-85.01333333 142.82666667-85.01333333h255.68v-532.48zM636.05333333 716.16H925.86666667c15.89333333 0 28.90666667 13.22666667 28.90666666 29.44S941.86666667 775.1466666700001 925.86666667 775.1466666700001H636.05333333c-15.89333333 0-28.90666667-13.22666667-28.90666666-29.44s13.01333333-29.54666667 28.90666666-29.54666667zM563.09333333 466.13333333c-10.77333333-12.05333333-9.92-30.72 1.92-41.70666666l75.09333334-69.76H311.68c-15.89333333 0-28.90666667-13.22666667-28.90666667-29.44s12.90666667-29.44 28.90666667-29.44h328.42666667l-75.09333334-69.76c-11.84-10.98666667-12.69333333-29.65333333-1.92-41.70666667 5.65333333-6.4 13.54666667-9.6 21.33333334-9.6 6.93333333 0 13.86666667 2.56 19.41333333 7.68l130.34666667 121.06666667c5.97333333 5.54666667 9.49333333 13.54666667 9.49333333 21.76s-3.41333333 16.21333333-9.49333333 21.76L603.84 468.05333333c-11.73333333 10.88-29.97333333 10.02666667-40.74666667-1.92z"  horiz-adv-x="1024" />

    
    <glyph glyph-name="shangchuanwenjian" unicode="&#59376;" d="M1226.683733 6.9632V8.533333v-2.594133l-0.546133 7.304533 0.546133-4.7104V629.76c0 56.661333-27.0336 96.597333-69.8368 115.029333a139.400533 139.400533 0 0 1-60.6208 10.4448H660.48c1.092267 0-6.485333 0.546133-13.5168 11.605334-12.970667 19.933867-25.941333 39.389867-39.594667 58.7776a178.9952 178.9952 0 0 1-17.749333 22.050133C556.509867 882.8928 518.5536 893.952 486.126933 890.197333c-3.822933-0.477867-338.875733 0-338.875733 0-60.6208 0-104.448-26.760533-128.341333-70.314666a144.042667 144.042667 0 0 1-18.909867-68.266667v-741.512533c0-61.986133 24.917333-105.540267 67.652267-126.020267 21.640533-10.513067 43.349333-13.1072 62.805333-11.0592h-2.184533l8.192 0.546133-4.9152-0.546133h972.8c57.890133 0 97.8944 28.8768 114.141866 74.615467 7.031467 18.909867 9.762133 39.389867 8.192 59.323733z m-122.333866-82.466133H127.7952s-76.868267-12.0832-76.868267 86.152533V751.616S52.0192 839.2704 146.8416 839.2704h342.698667s40.5504 8.3968 75.1616-42.530133c33.041067-48.3328 52.0192-79.2576 52.0192-79.2576s12.970667-14.199467 40.072533-13.653334c-24.3712-0.546133 440.593067 0 440.593067 0s77.960533 7.850667 77.960533-74.615466v-623.8208c0 0.546133 11.332267-80.896-70.929067-80.896zM451.515733 372.394667a31.402667 31.402667 0 0 1 0-44.578134 33.041067 33.041067 0 0 1 45.4656-0.546133l0.546134 0.546133 106.0864 104.448v-303.445333a32.085333 32.085333 0 0 1 32.494933-31.5392 31.266133 31.266133 0 0 1 31.9488 31.5392V432.3328l106.0864-104.516267a32.3584 32.3584 0 0 1 44.919467-0.546133l0.546133 0.546133a31.402667 31.402667 0 0 1 0 44.6464L658.295467 531.0464a33.041067 33.041067 0 0 1-45.4656 0.546133l-0.546134-0.546133L451.515733 372.394667z"  horiz-adv-x="1228" />

    
    <glyph glyph-name="chanpin" unicode="&#58884;" d="M278.410263 769.261908c40.745932 0 78.937641-15.811854 107.763867-44.638081 28.826226-28.826226 44.638081-67.017936 44.63808-107.763867v-152.401948H278.410263c-40.745932 0-78.937641 15.811854-107.763868 44.63808-28.826226 28.826226-44.638081 67.017936-44.63808 107.763868 0 40.745932 15.811854 78.937641 44.63808 107.763867 28.826226 28.826226 67.017936 44.638081 107.763868 44.638081z m0.121629 47.800451C167.848913 817.062359 78.207863 727.421309 78.207863 616.73833c0-110.561349 89.64105-200.324029 200.324029-200.324029h155.19943c24.934078 0 45.124599 20.190521 45.124599 45.124599V616.73833c0 110.682979-89.76268 200.324029-200.324029 200.324029m0.486519-517.534149h149.117947V150.410263c0-39.894524-15.568595-77.356456-43.665043-105.452905-28.218078-28.218078-65.68001-43.665043-105.452904-43.665043-39.894524 0-77.356456 15.568595-105.452904 43.665043-28.218078 28.218078-43.665043 65.68001-43.665044 105.452905 0 39.894524 15.568595 77.356456 43.665044 105.452904 28.096449 28.096449 65.55838 43.665043 105.452904 43.665043z m-0.486519 50.719563c-110.682979 0-200.324029-89.76268-200.324029-200.324029 0-110.561349 89.64105-200.324029 200.324029-200.324029 110.561349 0 200.324029 89.64105 200.324029 200.324029V305.001544c0 24.934078-20.190521 45.124599-45.124599 45.124599H278.531892v0.12163m468.88229 419.743912c40.381043 0 78.329493-15.690224 106.91246-44.273191s44.273192-66.531417 44.273192-106.91246-15.690224-78.329493-44.273192-106.91246-66.531417-44.273192-106.91246-44.273192H596.106901V618.806034c0 40.381043 15.690224 78.329493 44.273192 106.91246s66.531417 44.273192 107.034089 44.273191z m-2.067704 47.070674c-110.561349 0-200.324029-89.64105-200.324029-200.324029v-155.19943c0-24.934078 20.190521-45.124599 45.124599-45.124599h155.19943c110.561349 0 200.324029 89.64105 200.324029 200.324029 0 110.682979-89.64105 200.324029-200.324029 200.324029m0-516.926001c40.137784 0 77.842974-15.690224 106.304312-44.029932 28.339708-28.339708 44.029932-66.166528 44.029932-106.304312 0-40.137784-15.568595-77.842974-44.029932-106.304311-28.339708-28.339708-66.166528-44.029932-106.304312-44.029933-40.137784 0-77.842974 15.568595-106.304311 44.029933-28.339708 28.339708-44.029932 66.166528-44.029933 106.304311V300.136358h150.334244z m0 50.111415H590.268678c-24.934078 0-45.124599-20.190521-45.124599-45.124599v-155.19943c0-110.561349 89.64105-200.324029 200.324029-200.324029 110.561349 0 200.324029 89.64105 200.324029 200.324029-0.12163 110.561349-89.76268 200.324029-200.445659 200.324029m0 0z"  horiz-adv-x="1024" />

    
    <glyph glyph-name="kongjian" unicode="&#58885;" d="M947.920656 102.366552L879.443164 881.526072H138.353724L76.079344 96.16344v-211.027438h871.841312V102.366552zM817.168785 819.251693l62.274379-685.018174H138.353724L200.871362 819.251693h616.297423zM138.353724-52.589619V71.95914h747.292552v-124.548759H138.353724zM761.097518 46.295284h62.274379v-62.274379h-62.274379v62.274379zM655.279724 46.295284h62.27438v-62.274379h-62.27438v62.274379zM262.902482 699.933009h498.195036v-64.950232H262.902482v64.950232zM231.765293 505.325573h560.469414v-64.950232H231.765293v64.950232zM200.628103 324.462288h622.743794v-64.950232h-622.743794v64.950232z"  horiz-adv-x="1024" />

    
    <glyph glyph-name="yonghu" unicode="&#58886;" d="M1179.379 881.526c95.844 0.243 176.485-71.64 184.147-164.078 7.784-93.898-59.112-175.876-155.564-191.323-22.137-3.649-44.030-3.162-65.68 1.703-8.514 1.946-11.676-0.608-15.447-6.811-67.748-114.21-135.374-228.299-203.73-342.144-7.055-11.798 1.581-13.501 7.541-18.123 46.949-36.246 68.721-83.803 60.936-141.455-8.028-60.328-43.057-102.412-101.682-124.184-62.518-23.231-132.455-4.257-174.903 45.854-42.692 50.233-48.53 119.684-13.866 175.755 5.96 9.609 6.081 13.744-3.892 20.92-95.723 68.721-190.959 138.171-286.073 207.865-8.028 5.838-13.866 7.055-23.353 2.676-21.772-10.217-45.368-14.109-69.207-10.582-10.339 1.46-14.596-1.824-19.217-9.609-28.461-48.409-57.044-96.696-86.114-144.618-5.352-8.879-5.595-14.231 1.581-23.231 32.11-40.259 36.124-84.289 12.041-129.657-22.137-41.597-71.032-66.775-118.589-60.572-51.084 6.568-86.357 33.935-102.412 81.978-27.853 83.803 47.192 166.389 136.347 150.334 9.974-1.824 14.596 0.973 19.339 9.001 26.88 46.098 54.125 92.074 81.978 137.685 6.081 9.852 5.96 15.082-3.406 23.353-44.152 39.043-56.801 99.371-33.448 151.672 23.353 52.179 77.721 83.924 136.833 80.032 56.193-3.649 105.088-42.692 121.143-96.939 10.703-36.489 6.081-71.275-13.623-103.872-5.23-8.514-3.771-12.285 3.892-17.758 96.452-69.815 192.661-139.874 288.749-210.054 6.325-4.622 10.947-6.203 18.731-1.946 26.637 14.596 55.706 20.312 85.992 17.393 10.825-1.095 15.204 2.797 20.191 11.19 66.775 112.872 133.793 225.501 201.175 338.009 6.081 10.095 6.325 15.082-4.014 22.866-61.423 46.706-84.776 126.495-59.234 198.378 25.299 71.397 95.236 120.048 172.836 120.292M1179.379 881.526z"  horiz-adv-x="1364" />

    
    <glyph glyph-name="bushu" unicode="&#58887;" d="M511.939 531.111c-81.978 0-148.51-66.531-148.51-148.51 0-81.857 66.653-148.51 148.51-148.51 8.149 0 16.663 0.851 26.515 2.676 11.555 2.068 19.217 13.136 17.15 24.691-2.068 11.555-13.136 19.339-24.691 17.15-7.298-1.338-13.379-1.946-18.974-1.946-58.504 0-106.061 47.557-106.061 106.061 0 58.382 47.557 106.061 106.061 106.061s106.061-47.557 106.061-106.061c0-5.595-0.608-11.555-1.946-18.974-2.189-11.555 5.595-22.623 17.028-24.691 11.555-2.068 22.623 5.595 24.691 17.028 1.824 9.852 2.676 18.366 2.676 26.515 0 81.978-66.653 148.51-148.51 148.51zM949.928 466.282c-1.581 8.271-7.906 14.839-16.055 16.785-46.584 10.703-85.262 39.286-108.98 80.276-23.718 41.111-29.069 88.79-15.082 134.401 2.433 8.028 0 16.785-6.446 22.258-42.692 36.854-91.465 65.072-144.983 83.681-7.906 2.797-16.785 0.608-22.501-5.595-32.597-35.029-76.627-54.125-123.941-54.125-47.436 0-91.465 19.217-123.941 54.125-5.717 6.203-14.596 8.271-22.501 5.595-53.395-18.609-102.169-46.706-144.983-83.681-6.325-5.473-8.879-14.231-6.446-22.258 13.866-45.611 8.514-93.29-15.082-134.401-23.718-41.111-62.396-69.694-108.98-80.276-8.149-1.824-14.596-8.392-16.055-16.785-5.352-28.218-8.028-56.436-8.028-83.56 0-27.245 2.676-55.341 8.028-83.56 1.581-8.271 7.906-14.839 16.055-16.663 46.584-10.703 85.262-39.286 108.98-80.276 23.718-41.111 29.069-88.79 15.082-134.401-2.433-8.028 0.122-16.785 6.446-22.258 42.814-36.854 91.465-65.072 144.983-83.681 2.311-0.851 4.622-1.216 6.933-1.216 5.838 0 11.433 2.311 15.569 6.69 32.597 34.908 76.627 54.125 123.941 54.125 47.436 0 91.344-19.217 123.941-54.125 5.717-6.203 14.474-8.271 22.501-5.595 53.395 18.609 102.169 46.706 144.983 83.681 6.325 5.473 8.879 14.231 6.446 22.258-13.987 45.611-8.514 93.29 15.204 134.401s62.396 69.572 108.98 80.276c8.149 1.824 14.474 8.392 16.055 16.663 5.352 28.34 8.028 56.436 8.028 83.56 0 27.245-2.676 55.341-8.149 83.681zM910.52 320.084c-51.449-15.569-95.601-50.233-122.481-96.817-26.88-46.463-34.786-101.926-22.623-154.226-32.718-26.515-69.207-47.557-108.615-62.639-39.408 37.219-90.371 57.409-144.861 57.409-53.639 0-105.696-20.799-144.861-57.409-39.408 15.082-75.775 36.124-108.494 62.639 12.528 52.787 4.622 107.034-22.623 154.226-27.123 46.584-71.153 81.249-122.724 96.817-3.406 21.285-5.108 42.205-5.108 62.639 0 20.434 1.703 41.476 5.108 62.639 51.449 15.569 95.479 50.233 122.359 96.817 26.88 46.463 34.908 101.926 22.745 154.226 32.718 26.515 69.086 47.557 108.494 62.761 39.165-36.732 91.344-57.531 144.983-57.531 54.49 0 105.453 20.312 144.983 57.409 39.408-15.204 75.897-36.124 108.615-62.639-12.163-52.301-4.257-107.764 22.623-154.226 26.88-46.584 71.032-81.249 122.481-96.817 3.406-21.285 5.108-42.327 5.108-62.639 0-20.434-1.703-41.354-5.108-62.639zM910.52 320.084z"  horiz-adv-x="1024" />

    
    <glyph glyph-name="rizhi" unicode="&#58888;" d="M856.942-84.213h-695.965c-64.099 0-116.035 51.936-116.035 116.035v696.573c0 64.099 52.666 121.508 116.764 121.508h467.058v-51.936h-467.058c-31.989 0-65.315-37.584-65.315-69.694v-696.451c0-32.11 32.475-64.585 64.464-64.585h695.965c31.989 0 70.18 33.205 70.18 65.193v467.058h52.057v-467.058c0-63.977-58.017-116.643-122.116-116.643zM481.106 167.925c-8.514-8.514-19.096-12.771-30.043-14.839l-253.963-125.643c-28.583-13.379-51.449 12.285-40.989 40.989l125.522 254.084c2.068 10.947 6.325 21.528 14.839 30.043l451.246 451.368c22.623 22.623 59.355 22.623 81.978 0l102.534-102.655c22.623-22.623 22.623-59.477 0-82.1l-451.124-451.246zM211.696 103.461c-6.69-13.379 6.203-27.123 20.434-20.434l156.781 94.993-82.343 82.465-94.871-157.024zM337.583 311.448l327.427 327.549 103.264-101.926-328.157-328.157-102.534 102.534zM870.686 680.837l-61.545 61.545c-11.312 11.312-29.678 11.312-40.989 0l-60.085-60.085 101.074-104.115 61.545 61.545c11.312 11.433 11.312 29.799 0 41.111z"  horiz-adv-x="1024" />

    
    <glyph glyph-name="arescloud" unicode="&#58889;" d="M955.786343 339.895596H517.704404l50.345374-49.228283a49.167515 49.167515 0 0 1 34.391919-13.937778h205.420606c26.867071 0 48.652929-21.298424 48.652929-47.579798 0-26.322747-21.837576-47.641859-48.756363-47.587555l-254.239031 0.532687a49.053737 49.053737 0 0 0-34.278141 13.909333c-27.95701 27.340283-92.232404 90.193455-147.135354 143.888808h-50.85608a49.071838 49.071838 0 0 1 26.320161 13.282263l6.85899 6.706424 68.476121 66.96598 11.298909 11.049374h521.581899c27.668687 0 50.10101-21.946182 50.101011-48.994263s-22.432323-49.007192-50.101011-49.007192z m-104.352323 303.952162a51.838707 51.838707 0 0 0-36.835555 15.101414A406.044444 406.044444 0 0 1 525.146505 779.080404C320.85204 779.080404 152.035556 630.570667 125.469737 437.899636h126.546748l138.449454 135.395556a49.158465 49.158465 0 0 0 34.275556 13.911919l254.237737 0.517172c26.918788 0.054303 48.756364-21.263515 48.756364-47.579798 0-26.277495-21.785859-47.579798-48.652929-47.579798H473.668525a49.199838 49.199838 0 0 1-34.399677-13.933899l-41.651717-40.727273-11.298909-11.049374-68.477414-66.965979-6.852525-6.706425a48.914101 48.914101 0 0 0-20.261495-11.852282c1.997576-0.606384 4.031354-1.083475 6.089697-1.42998h-12.153536c-2.669899-0.439596-5.372121-0.660687-8.078222-0.660687h-7.990303a52.693333 52.693333 0 0 0-8.365252 0.660687H124.353939c5.14198-45.672727 18.267798-92.70303 40.56695-139.910465 35.849051-75.911758 99.463758-136.274747 177.552808-170.33697 182.336646-79.529374 361.049212-31.614707 472.228202 80.678788a51.859394 51.859394 0 0 0 36.874343 15.127273c28.167758 0.455111 51.37196-22.010828 51.827071-50.179879a49.949737 49.949737 0 0 0-15.017374-36.36105c-92.069495-92.577616-220.741818-150.11297-363.239434-150.11297-280.031677 0-507.033859 221.99596-507.033859 495.851313 0 71.792485 15.609535 147.166384 49.949738 223.018667 45.433535 100.353293 127.353535 180.177455 230.070303 224.424081 228.002909 98.236768 451.185778 38.237091 590.447192-102.001778a49.36404 49.36404 0 0 0 14.829899-35.143111c-0.080162-28.308687-23.094303-51.190949-51.40299-51.110788-0.191354 0-0.381414 0.002586-0.572768 0.005172z"  horiz-adv-x="1024" />

    
    <glyph glyph-name="aliyun" unicode="&#59139;" d="M257.024 138.3424a66.9696 66.9696 0 0 0-51.9168 65.536V564.224c2.2528 32.768 22.528 58.368 51.8144 65.536l322.3552 72.4992L613.0688 844.8H238.8992C105.984 844.8 0 734.8224 0 599.1424v-425.6768C0 37.888 108.2368-74.4448 238.8992-74.4448h374.1696l-33.792 142.6432-322.3552 70.144zM1194.5984 844.8H818.176l33.792-142.6432 322.3552-72.6016c29.2864-6.9632 51.8144-32.768 51.8144-65.536v-360.1408c-2.2528-32.768-22.528-58.368-51.8144-65.536l-322.3552-72.4992L818.176-76.8h376.4224C1325.3632-76.8 1433.6 33.1776 1433.6 171.1104v428.032C1431.3472 734.9248 1325.3632 844.8 1194.7008 844.8z m-615.424-442.0608h275.0464v-35.1232H579.2768v35.1232z"  horiz-adv-x="1433" />

    
    <glyph glyph-name="e-manager" unicode="&#58953;" d="M363.582 826.090h-170.398c-68.746 0-126.323-57.033-126.323-125.785v-170.396c0-68.747 57.577-123.431 126.323-123.431h293.291v293.827c0.001 68.751-54.145 125.785-122.893 125.785zM424.919 468.033h-231.735c-34.373 0-63.741 27.504-63.741 61.876v170.396c0 34.375 29.367 63.199 63.741 63.199h170.394c34.376 0 61.34-28.824 61.34-63.199v-232.272h0.001zM841.516 826.090h-170.397c-68.746 0-126.165-57.033-126.165-125.785v-293.827h296.562c68.75 0 123.048 54.684 123.048 123.431v170.396c0 68.751-54.299 125.785-123.048 125.785zM901.979 529.909c0-34.372-26.088-61.876-60.463-61.876h-235.003v232.272c0 34.375 30.237 63.199 64.606 63.199h170.397c34.375 0 60.463-28.824 60.463-63.199v-170.396zM66.862 222.372v-170.397c0-68.747 57.577-123.591 126.323-123.591h170.394c68.749 0 122.897 54.842 122.897 123.591v296.021h-293.292c-68.745 0-126.322-56.877-126.322-125.624zM424.919 51.975c0-34.375-26.964-61.006-61.337-61.006h-170.395c-34.376 0-63.741 26.632-63.741 61.006v170.397c0 34.372 29.365 64.067 63.741 64.067h231.732v-234.464zM841.516 347.996h-296.562v-296.020c0-68.747 57.42-123.591 126.165-123.591h170.397c68.75 0 123.048 54.842 123.048 123.591v170.396c0 68.747-54.299 125.624-123.048 125.624zM901.979 51.975c0-34.375-26.088-61.006-60.463-61.006h-170.397c-34.375 0-64.606 26.632-64.606 61.006v234.464h235.003c34.375 0 60.463-29.696 60.463-64.071v-170.393z"  horiz-adv-x="1024" />

    
    <glyph glyph-name="play" unicode="&#59164;" d="M398 133.29999999999995c0-38.2-31.8-69.1-71-69.1s-71 30.9-71 69.1V634.7c0 38.2 31.8 69.1 71 69.1s71-30.9 71-69.1v-501.4z m370.1 0c0-38.2-31.8-69.1-71-69.1s-71 30.9-71 69.1V634.7c0 38.2 31.8 69.1 71 69.1s71-30.9 71-69.1v-501.4z"  horiz-adv-x="1024" />

    
    <glyph glyph-name="mysql" unicode="&#59054;" d="M1166.942041 11.80734700000005a250.77551 250.77551 0 0 0 46.811428-58.723265l12.747755-17.345306c2.925714-5.433469 3.343673-12.329796 6.478368-17.763266v-1.253877a640 640 0 0 0-97.17551 31.555918c-35.94449 15.673469-103.653878 45.97551-105.743674 47.856327-176.169796 84.427755-161.123265 89.861224-185.364898 108.669387a464.143673 464.143673 0 0 0-33.227755 35.526531 286.155755 286.155755 0 0 0-57.051428 78.158367c-5.433469 15.25551-10.657959 30.72-16.091429 45.97551l0.20898 1.253878a40.124082 40.124082 0 0 1-5.015511-14.419592c-9.195102-25.913469-7.314286-56.842449-30.72-64.156735-26.749388-8.568163-42.631837 22.360816-49.110204 36.780409a249.396245 249.396245 0 0 0 3.761633 179.931428 169.273469 169.273469 0 0 0 15.46449 39.079184 38.514939 38.514939 0 0 1-10.657959 19.435102 240.53551 240.53551 0 0 0-14.628572 34.481633 691.09551 691.09551 0 0 0-18.599184 74.396734c-2.507755 10.03102-2.089796 19.226122-5.224489 28.630204a244.276245 244.276245 0 0 1-20.89796 42.631837c-10.03102 18.808163-39.706122 56.42449-22.778775 89.861225a39.225469 39.225469 0 0 0 43.258775 22.778775 178.782041 178.782041 0 0 0 78.785307-41.586939 175.835429 175.835429 0 0 1 20.688979-20.688979c12.329796-2.089796 25.077551-4.179592 37.407347-6.269388a212.992 212.992 0 0 0 61.022041-28.212245 521.696653 521.696653 0 0 0 172.617143-219.010612 531.393306 531.393306 0 0 0 18.808163-63.320816c9.404082-32.182857 20.27102-65.410612 31.555918-96.339592a253.13698 253.13698 0 0 1 16.091429-43.258776 59.412898 59.412898 0 0 1 18.390204-11.911837c15.882449-10.866939 34.481633-19.644082 49.319184-31.973877a757.488327 757.488327 0 0 0 75.023673-73.769796c8.777143-10.03102 13.792653-23.614694 21.733878-34.272653l-0.417959-4.806531c-8.359184-1.671837-16.509388-3.134694-24.659592-4.80653-18.181224-3.134694-33.227755-0.417959-50.782041-3.552653a215.24898 215.24898 0 0 0-35.108572-4.806531 3.740735 3.740735 0 0 1 1.044898-1.462857c4.597551-20.062041 37.616327-39.706122 52.035919-53.289796zM760.058776 644.388571a34.962286 34.962286 0 0 1-18.808164 13.792653 12.538776 12.538776 0 0 1-3.970612 0c-16.718367 5.01551-36.571429-10.866939-21.315918-23.196734a173.285878 173.285878 0 0 0 24.032653-57.051429 43.760327 43.760327 0 0 1 20.062041 66.45551z m-136.672654 110.759184z m140.434286-16.300408l-8.777143 3.343673-39.288163 6.896327c-1.671837 1.671837-3.761633 4.179592-5.22449 5.851429a135.836735 135.836735 0 0 1-11.911836 12.329795 215.583347 215.583347 0 0 1-98.847347 51.2 68.148245 68.148245 0 0 1-72.09796-38.243265c-21.733878-42.840816 5.01551-86.726531 19.435102-110.550204 2.298776-3.761633 4.388571-7.105306 5.851429-10.03102l5.433469-9.822041a183.902041 183.902041 0 0 0 15.67347-32.600817 73.142857 73.142857 0 0 0 2.507755-13.165714 118.115265 118.115265 0 0 1 2.716735-16.509388l5.01551-22.569795a465.334857 465.334857 0 0 1 16.091428-61.44 305.758041 305.758041 0 0 1 17.554286-40.96 1115.783837 1115.783837 0 0 0-181.603265-14.628572C195.395918 447.947755 0 519.627755 0 608.026122V735.921633C0 824.3199999999999 195.395918 896 436.349388 896s436.140408-71.68 436.140408-160.078367v-65.410613c-14.210612 12.747755-29.048163 25.077551-44.094694 36.989388a222.584163 222.584163 0 0 1-64.574694 31.346939zM436.349388 352.026122a1119.085714 1119.085714 0 0 1 158.82449 11.075919 276.020245 276.020245 0 0 1 12.747755-159.869388 147.581388 147.581388 0 0 1 15.882449-27.585306 1108.88751 1108.88751 0 0 0-187.454694-15.673469C195.395918 159.973878 0 231.65387799999996 0 320.05224499999997v192.052245c0-88.398367 195.395918-160.078367 436.349388-160.078368z m0-287.973877c133.746939 0 253.492245 22.151837 333.531428 57.051428 5.01551-5.642449 10.24-11.284898 15.67347-16.509387 3.970612-4.179592 7.732245-8.777143 11.702857-13.374694a200.369633 200.369633 0 0 1 26.540408-27.376327 88.586449 88.586449 0 0 0 10.03102-8.986122 206.325551 206.325551 0 0 1 37.825307-29.257143C862.458776-59.66367300000002 671.242449-128 436.349388-128 195.395918-128 0-56.32000000000005 0 32.07836699999996v191.843266c0-88.189388 195.395918-159.869388 436.349388-159.869388z"  horiz-adv-x="1232" />

    
    <glyph glyph-name="set" unicode="&#58994;" d="M920.752 484.285h-79.678c-7.513 16.186-18.163 49.853-31.79 73.84l56.275 54.69c17.772 17.772 17.792 45.724 0.035 63.466l-64.242 63.851c-17.738 17.738-46.5 17.546-64.273-0.213l-53.138-56.359c-23.952 13.614-57.619 24.184-73.806 31.693l0 79.67c0 25.117-26.608 45.447-51.681 45.447h-90.847c-25.086 0-51.694-20.33-51.694-45.447v-79.684c-16.187-7.508-49.839-18.162-73.826-31.771l-54.704 56.276c-17.773 17.772-45.744 17.772-63.466 0.034l-63.851-64.256c-17.723-17.723-17.56-46.486 0.213-64.273l56.374-53.139c-13.628-23.985-24.184-57.639-31.693-73.825h-79.663c-25.136 0-45.469-26.609-45.469-51.677v-90.849c0-25.075 20.331-51.698 45.469-51.698h79.679c7.512-16.187 18.177-49.832 31.775-73.824l-56.28-54.723c-17.772-17.77-17.772-45.707-0.031-63.449l64.238-63.867c17.723-17.722 46.5-17.546 64.272 0.23l53.139 56.372c23.986-13.615 57.639-24.178 73.826-31.693v-79.68c0-25.119 26.608-45.451 51.676-45.451h90.85c25.073 0 51.696 20.332 51.696 45.468v79.68c16.187 7.513 49.834 18.176 73.84 31.792l54.71-56.276c17.767-17.774 45.704-17.774 63.447-0.036l63.867 64.24c17.723 17.738 17.546 46.5-0.227 64.273l-56.374 53.142c13.613 23.984 24.178 57.615 31.691 73.802h79.684c25.117 0 45.447 26.612 45.447 51.683v90.847c-0 25.086-20.33 51.695-45.468 51.695v0zM513.021 182.8c-112.89 0-204.403 91.512-204.403 204.391 0 112.897 91.513 204.411 204.403 204.411 112.912 0 204.41-91.513 204.41-204.411 0-112.88-91.498-204.391-204.41-204.391v0zM513.021 182.8z"  horiz-adv-x="1024" />

    
    <glyph glyph-name="collapse-down" unicode="&#58880;" d="M1014.52 385.073c0-278.654-225.906-504.636-504.637-504.636-278.732 0-504.637 225.982-504.637 504.636 0 278.732 225.904 504.637 504.637 504.638 278.732 0 504.638-225.905 504.638-504.638zM68.326 385.073c0-243.881 197.676-441.557 441.557-441.557 243.883 0 441.636 197.637 441.636 441.557 0 243.921-197.754 441.597-441.636 441.597-243.882-0.001-441.557-197.716-441.557-441.597zM779.071 528.107c12.381-12.302 12.381-32.251 0-44.549l-241.437-241.476c-7.646-7.57-17.977-9.935-27.753-8.2-9.776-1.735-20.184 0.671-27.755 8.2l-241.517 241.476c-12.301 12.34-12.301 32.288 0 44.549 12.302 12.378 32.328 12.378 44.628 0l224.642-224.566 224.564 224.564c12.378 12.381 32.328 12.381 44.628 0.001z"  horiz-adv-x="1024" />

    
    <glyph glyph-name="upload" unicode="&#59147;" d="M852.4-63.60000000000002H173.6c-59.3 0-107.6 43.1-107.6 96V192.89999999999998c0 17.7 14.3 32 32 32s32-14.3 32-32v-160.5c0-17.3 19.9-32 43.6-32h678.9c23.6 0 43.6 14.7 43.6 32V192.89999999999998c0 17.7 14.3 32 32 32s32-14.3 32-32v-160.4c-0.1-53-48.4-96.1-107.7-96.1zM513.9 65.5c16.3 0 29.6 13.3 29.6 29.6V763.2c0 16.3-13.3 29.6-29.6 29.6h-4.7c-16.3 0-29.6-13.3-29.6-29.6v-668.1c0-16.3 13.3-29.6 29.6-29.6h4.7zM196.4 416.2c7.6 0 15.2 2.9 21 8.6l319.8 319.8c11.5 11.5 11.5 30.4 0 41.9l-3.3 3.3c-5.8 5.8-13.4 8.6-21 8.6s-15.2-2.9-21-8.6L172.1 470.1c-11.5-11.5-11.5-30.4 0-41.9l3.3-3.3c5.8-5.8 13.4-8.7 21-8.7zM828.1 416c7.6 0 15.2 2.9 21 8.6l3.3 3.3c11.5 11.5 11.5 30.4 0 41.9L532.6 789.7c-5.8 5.8-13.4 8.6-21 8.6s-15.2-2.9-21-8.6l-3.3-3.3c-11.5-11.5-11.5-30.4 0-41.9l319.8-319.8c5.8-5.9 13.4-8.7 21-8.7z"  horiz-adv-x="1024" />

    
    <glyph glyph-name="help" unicode="&#58900;" d="M563.466 844.686c59.79 0 118.314-11.379 173.406-33.778 57.080-23.12 108.379-57.261 152.453-101.153 44.074-44.074 78.034-95.374 101.154-152.453 22.398-55.274 33.778-113.617 33.778-173.407s-11.381-118.312-33.778-173.405c-23.122-57.080-57.261-108.379-101.154-152.453-44.074-44.075-95.372-78.034-152.453-101.154-55.273-22.398-113.616-33.777-173.406-33.777s-118.314 11.379-173.406 33.777c-57.080 23.12-108.379 57.261-152.453 101.154-44.075 44.074-78.034 95.372-101.154 152.451-22.398 55.274-33.777 113.617-33.777 173.406 0 59.79 11.381 118.314 33.777 173.407 23.122 57.079 57.261 108.379 101.154 152.453 44.074 44.074 95.373 78.034 152.453 101.153 55.092 22.399 113.437 33.78 173.406 33.778M563.466 895.986c-131.138 0-262.095-50.035-362.166-150.105-199.958-199.959-199.958-524.011 0-723.969 99.889-100.071 231.028-149.925 361.986-149.925s262.095 50.035 361.984 149.925c199.959 199.958 199.959 524.19 0 724.149-99.708 99.889-230.845 149.925-361.804 149.925zM564.188 648.34c-48.228 0-87.064-13.006-116.507-38.836-29.263-26.011-46.964-63.22-52.925-111.991l65.931-7.766c5.78 36.488 17.702 63.040 36.126 80.199 18.244 17.161 41.184 25.649 68.458 25.649 28.36 0 52.203-9.573 71.712-28.359 19.507-18.786 29.261-40.822 29.261-65.75 0-13.727-3.432-26.552-9.936-38.113-6.682-11.561-21.133-27.276-43.35-46.784-22.219-19.689-37.572-34.5-46.062-44.796-11.56-14.090-20.049-27.997-25.288-41.726-7.045-18.243-10.657-40.1-10.657-65.207 0-4.336 0.18-10.657 0.361-19.328h61.595c0.541 25.649 2.168 44.254 5.419 55.634 3.071 11.381 7.948 21.495 14.27 30.346 6.323 8.852 20.050 22.399 41.004 41.005 31.068 27.635 52.021 50.937 62.679 70.265 10.657 19.147 16.075 40.28 16.075 63.040 0 39.379-15.173 73.156-45.699 100.972-30.709 27.638-71.35 41.546-122.469 41.546zM563.647 198.208c-21.677 0-39.379-17.521-39.379-39.379 0-21.674 17.521-39.377 39.379-39.377 21.674 0 39.377 17.521 39.377 39.377-0.18 21.677-17.703 39.377-39.377 39.379z"  horiz-adv-x="1758" />

    
    <glyph glyph-name="user" unicode="&#58901;" d="M924.361 746.076c-99.708 99.89-230.846 149.925-361.805 149.925-131.138 0-262.096-50.036-362.167-150.106-199.959-199.96-199.959-524.013-0-723.971 99.89-100.071 231.029-149.925 361.987-149.925s262.096 50.036 361.986 149.925c199.96 199.959 199.96 524.192 0 724.152zM898.841 68.895c-13.264 40.077-35.255 73.961-62.812 97.526l0.001-0.001c-5.748 4.917-11.719 9.416-17.923 13.393-84.22 60.057-154.032 94.192-256.515 94.192-101.53 0-170.489-33.531-254.15-92.549-21.983-13.637-39.993-31.655-53.221-52.954 4.88 13.5-15.73-18.189-28.762-55.438v-3.337c-38.633 41.379-68.808 88.658-89.919 140.776-22.398 55.274-33.777 113.618-33.777 173.406 0 59.79 11.381 118.314 33.777 173.408 23.122 57.079 57.261 108.379 101.154 152.453 44.074 44.074 95.374 78.034 152.453 101.153 55.092 22.399 113.438 33.78 173.406 33.78v-0.001c59.79 0 118.314-11.379 173.406-33.779 57.081-23.12 108.379-57.261 152.453-101.153 44.074-44.074 78.034-95.374 101.154-152.453 22.398-55.274 33.779-113.618 33.779-173.408s-11.381-118.313-33.779-173.405c-21.254-52.467-51.839-100.032-90.728-141.608zM355.419 511.984c0-111.86 90.68-202.54 202.54-202.54s202.54 90.68 202.54 202.54c0 111.86-90.68 202.54-202.54 202.54-111.86 0-202.54-90.68-202.54-202.54z"  horiz-adv-x="1757" />

    
    <glyph glyph-name="add" unicode="&#58906;" d="M631.806176 381.630165m-491.107298 0a491.107298 491.107298 0 1 1 982.214596 0 491.107298 491.107298 0 1 1-982.214596 0ZM631.861871-127.984684c-69.109522 0-136.162495 13.540922-199.297303 40.242645-60.969653 25.78832-115.722318 62.701777-162.736119 109.716971-47.013801 47.013801-83.927259 101.766466-109.715579 162.736119C133.409755 247.845859 119.870226 314.898832 119.870226 384.008354s13.539529 136.162495 40.244036 199.297304c25.78832 60.971046 62.701777 115.722318 109.715579 162.736119s101.766466 83.927259 162.736119 109.715579c63.134808 26.703115 130.187781 40.242644 199.297304 40.242644s136.162495-13.539529 199.297303-40.242644c60.971046-25.78832 115.722318-62.701777 162.737512-109.715579 47.013801-47.013801 83.925866-101.766466 109.715578-162.736119 26.703115-63.134808 40.242644-130.187781 40.242645-199.297304s-13.540922-136.162495-40.242645-199.297303c-25.78832-60.969653-62.701777-115.722318-109.715578-162.736119-47.015194-47.015194-101.766466-83.927259-162.737512-109.716971-63.136201-26.701723-130.189174-40.242644-199.298696-40.242645z m0 982.214596c-125.601273 0-243.683679-48.911619-332.495416-137.724749C210.551933 627.692033 161.641706 509.609627 161.641706 384.008354c0-125.59988 48.911619-243.683679 137.724749-332.496808s206.895536-137.724749 332.495416-137.724749c125.601273 0 243.685071 48.911619 332.496809 137.724749 88.81313 88.81313 137.724749 206.896928 137.724749 332.496808 0 125.601273-48.911619 243.683679-137.724749 332.496809C875.546943 805.318293 757.463144 854.229912 631.861871 854.229912zM960.795573 404.607264H652.462173V712.942056h-41.199211v-308.334792H302.92817v-41.197819h308.334792v-308.334792h41.199211V363.409445h308.3334z"  horiz-adv-x="1682" />

    
    <glyph glyph-name="left-arrow" unicode="&#58910;" d="M912.521216 360.452096v47.210496L1336.496128 730.267648v-60.32384L956.81536 386.678784v-3.934208l379.680768-284.575744v-60.32384L912.521216 360.452096zM546.971648 360.452096v47.210496l423.97696 322.605056v-60.32384L591.26784 386.678784v-3.934208l379.680768-284.575744v-60.32384l-423.97696 322.607104z"  horiz-adv-x="1843" />

    
    <glyph glyph-name="right-arrow" unicode="&#58911;" d="M970.94656 407.662592v-47.210496L546.971648 37.844992v60.32384l379.680768 283.265024v3.934208L546.971648 669.943808V730.269696l423.974912-322.607104zM1336.496128 407.662592v-47.210496L912.519168 37.84704v60.32384l379.680768 283.265024v3.934208L912.519168 669.943808V730.269696l423.97696-322.607104z"  horiz-adv-x="1843" />

    
    <glyph glyph-name="monitor" unicode="&#58891;" d="M787.697-46.080h-551.388c-21.693 0-39.383-40.96-39.383-40.96v-40.96h630.154v40.96c0 22.564-17.69 40.96-39.383 40.96zM905.851 756.736h-787.702c-65.229 0-118.149-55.060-118.149-122.88v-434.176c0-67.835 52.92-122.88 118.149-122.88h275.697v-40.96c0-22.579 17.695-40.955 39.383-40.955h157.537c21.693 0 39.388 21.12 39.388 40.955v40.96h275.692c65.234 0 118.154 55.045 118.154 122.88v434.176c0.005 67.82-52.92 122.88-118.149 122.88zM848.379 471.47c-12.381 0.011-24.105 2.815-34.578 7.817l-126.882-153.727c4.344-9.584 6.876-20.781 6.876-32.57-0-44.696-36.234-80.93-80.932-80.93s-80.932 36.234-80.932 80.932c0 6.804 0.932 13.379 2.514 19.692l-168.796 150.298c-10.523-5.404-22.961-8.573-36.138-8.576-7.592 0-14.95 1.132-21.949 3.103l-75.889-115.108c10.562-13.488 16.937-30.697 16.937-49.395 0-0.008-0-0.016-0-0.024 0-44.696-36.234-80.931-80.932-80.931s-80.932 36.234-80.932 80.932 36.234 80.932 80.932 80.932c9.324 0 18.237-1.654 26.573-4.557l74.373 112.809c-12.428 14.104-20.014 32.735-20.014 53.138 0 0.010 0 0.020 0 0.030-0 44.696 36.234 80.93 80.932 80.93s80.932-36.234 80.932-80.932c0-14.863-4.076-28.744-11.069-40.714l159.16-141.732c14.367 13.025 33.367 21.028 54.282 21.028 16.092 0 31.048-4.751 43.648-12.851l123.279 148.521c-7.742 12.14-12.339 26.939-12.339 42.812 0 44.694 36.234 80.929 80.932 80.929s80.932-36.234 80.932-80.932-36.224-80.922-80.922-80.922z"  horiz-adv-x="1024" />

    
    <glyph glyph-name="back" unicode="&#58892;" d="M0 384c0-282.77 229.23-512 512-512s512 229.23 512 512c0 282.77-229.23 512-512 512-282.77 0-512-229.23-512-512zM460.226 364.419l-144.809 154.449 144.809 154.449 36.439-34.167-112.765-120.283 112.765-120.283zM583.805 116.361h-305.951v49.951h305.951c93.858 0 170.184 76.3 170.184 170.059 0 93.733-76.325 170.009-170.134 170.009h-219.436v49.951h219.436c121.332 0 220.085-98.679 220.085-219.96 0-121.332-98.754-220.010-220.135-220.010z"  horiz-adv-x="1024" />

    
    <glyph glyph-name="cancel" unicode="&#58893;" d="M99.564308 845.745231l888.280615-888.280616-49.388308-49.309538L50.254769 796.356923zM50.254769-42.535385L938.535385 845.666462l49.309538-49.309539L99.643077-91.844923z"  horiz-adv-x="1024" />

    
    <glyph glyph-name="appli-service" unicode="&#58894;" d="M258.285177 896a232.546864 232.546864 0 0 1 0-465.093728h232.546864V663.393A232.546864 232.546864 0 0 1 258.285177 896zM1027.487902 663.393a232.546864 232.546864 0 0 1-465.093728 0v-232.486728h232.546864a232.546864 232.546864 0 0 1 232.546864 232.546864zM25.738313 126.797275a232.546864 232.546864 0 0 1 465.093728 0V359.344139H258.285177a232.546864 232.546864 0 0 1-232.546864-232.546864zM795.001175 359.344139H562.334038v-232.546864a232.546864 232.546864 0 1 1 232.546864 232.546864z"  horiz-adv-x="1082" />

    
    <glyph glyph-name="database" unicode="&#58895;" d="M177.436444 565.475556c93.866667-36.408889 218.794667-56.490667 351.914667-56.490667 272.270222 0 493.795556 84.024889 493.795556 187.278222 0 103.310222-221.525333 187.335111-493.795556 187.335111S35.555556 799.573333 35.555556 696.263111c0-48.810667 50.403556-95.288889 141.880888-130.844444zM529.351111 439.466667c-230.684444 0-433.493333 61.952-493.795555 148.992v-95.061334c0-103.310222 221.525333-187.335111 493.795555-187.335111s493.795556 84.024889 493.795556 187.335111v95.004445c-60.302222-87.04-263.111111-148.935111-493.795556-148.935111zM529.351111 236.544c-230.684444 0-433.493333 62.008889-493.795555 149.048889v-95.118222c0-103.253333 221.525333-187.278222 493.795555-187.278223s493.795556 84.024889 493.795556 187.278223V385.592889c-60.302222-87.04-263.111111-149.048889-493.795556-149.048889zM529.351111 33.678222c-230.684444 0-433.493333 61.952-493.795555 149.048889v-95.118222c0-103.310222 221.525333-187.335111 493.795555-187.335111s493.795556 84.024889 493.795556 187.335111V182.613333c-60.302222-87.04-263.111111-149.048889-493.795556-149.048889z"  horiz-adv-x="1024" />

    
    <glyph glyph-name="element" unicode="&#58896;" d="M858.543158 401.354105h-69.308632V586.105263c0 50.768842-41.498947 92.321684-92.321684 92.321684H512.269474V747.627789A114.256842 114.256842 0 0 1 396.826947 863.016421a114.256842 114.256842 0 0 1-115.388631-115.388632v-69.254736H96.794947c-50.822737 0-92.321684-41.552842-92.321684-92.321685v-175.427368h69.200842A124.119579 124.119579 0 0 0 198.332632 285.911579a124.119579 124.119579 0 0 0-124.658527-124.658526H4.473263v-175.427369c0-50.768842 41.498947-92.321684 92.321684-92.321684H272.168421v69.254737a124.119579 124.119579 0 0 0 124.604632 124.658526 124.119579 124.119579 0 0 0 124.658526-124.658526V-106.442105h175.427368c50.768842 0 92.321684 41.552842 92.321685 92.321684V170.576842h69.254736a114.256842 114.256842 0 0 1 115.442527 115.388632 114.256842 114.256842 0 0 1-115.442527 115.388631z"  horiz-adv-x="1024" />

    
    <glyph glyph-name="assist" unicode="&#58897;" d="M534.366 886.461c-278.454 0-504.185-225.731-504.185-504.185s225.731-504.185 504.185-504.185c278.454 0 504.185 225.731 504.185 504.185 0 278.454-225.731 504.185-504.185 504.185zM467.806 131.611c-23.582-23.529-56.131-38.078-92.079-38.078-35.948 0-68.497 14.549-92.082 38.080-23.539 23.574-38.098 56.125-38.098 92.077 0 35.952 14.558 68.503 38.101 92.081l130.424 130.424c23.577 23.5 56.108 38.030 92.032 38.030 37.998 0 72.2-16.256 96.029-42.194 4.744-3.919 8.223-9.021 9.999-14.865l-2.045 5.393-0.108-0.054c2.291-4.235 3.637-9.27 3.637-14.62 0-17.234-13.971-31.205-31.205-31.205-5.462 0-10.596 1.403-15.062 3.869-0.648-0.944-8.84 7.194-13.151 11.56-12.259 12.355-29.246 20.004-48.020 20.004-18.667 0-35.567-7.562-47.806-19.789l-130.694-130.64c-12.289-12.289-19.891-29.267-19.891-48.020 0-37.506 30.405-67.911 67.911-67.911 18.753 0 35.731 7.601 48.020 19.891l78.632 78.686c13.052-6.542 28.438-10.371 44.718-10.371 15.306 0 29.822 3.385 42.839 9.447l-122.104-121.794zM785.031 448.835l-130.425-130.425c-23.58-23.516-56.121-38.056-92.058-38.056-37.985 0-72.176 16.245-96.004 42.166-4.754 3.935-8.242 9.054-10.025 14.916l2.072-5.444 0.162 0.108c-2.277 4.225-3.615 9.246-3.615 14.58 0 17.234 13.971 31.205 31.205 31.205 5.432 0 10.539-1.388 14.988-3.828 0.646 0.89 8.838-7.248 13.15-11.56h0.054c12.259-12.355 29.246-20.004 48.020-20.004 18.64 0 35.519 7.54 47.753 19.736l130.747 130.639c12.289 12.289 19.891 29.267 19.891 48.020 0 37.506-30.405 67.911-67.911 67.911-18.753 0-35.731-7.601-48.020-19.891l-78.686-78.686c-13.071 6.542-28.478 10.371-44.78 10.371-15.28 0-29.774-3.364-42.782-9.393l122.162 121.794c23.582 23.529 56.131 38.078 92.079 38.078s68.497-14.549 92.082-38.080c23.539-23.574 38.098-56.125 38.098-92.077 0-35.952-14.558-68.503-38.101-92.081z"  horiz-adv-x="1077" />

    
    <glyph glyph-name="server" unicode="&#58907;" d="M1150.4 244.352v-287.616c0-39.552-32.32-71.936-71.872-71.936H71.936A72.128 72.128 0 0 0 0-43.264v287.616h826.88V316.16H0V819.52C0 859.072 32.384 891.52 71.936 891.52h1006.592c39.552 0 71.872-32.384 71.872-71.936v-503.296h-251.648v-71.872h251.648zM1006.72 747.648c0 21.568-14.4 35.968-35.968 35.968H179.776c-21.568 0-35.968-14.4-35.968-35.968v-71.936c0-21.568 14.4-35.904 35.968-35.904h790.912c21.568 0 35.968 14.336 35.968 35.904V747.648z m-35.968-323.584c21.568 0 35.904 14.4 35.904 35.968V531.968c0 21.568-14.336 35.904-35.904 35.904H179.776c-21.568 0-35.968-14.336-35.968-35.904v-71.936c0-21.568 14.4-35.968 35.968-35.968h790.912zM287.616 100.544c0 21.568-14.4 35.968-35.904 35.968H179.776c-21.568 0-35.968-14.4-35.968-35.968v-71.936c0-21.568 14.4-35.904 35.968-35.904h71.936c21.568 0 35.904 14.336 35.904 35.904v71.936z m107.84 0v-71.936c0-21.568 14.4-35.904 35.968-35.904h539.264c21.568 0 35.904 14.336 35.904 35.904v71.936c0 21.568-14.336 35.968-35.904 35.968H431.36c-21.568 0-35.968-14.4-35.968-35.968zM287.616 460.032H215.744V531.968h71.872v-71.936zM215.744 747.648h71.872v-71.936H215.744V747.648z"  horiz-adv-x="1152" />

    
    <glyph glyph-name="net" unicode="&#58908;" d="M57.742171 555.85542S147.424401 831.324222 454.946927 883.439941c0 0-47.171262-67.858417-92.012376-175.954489 0 0-94.342523 10.286745-116.450501-85.988095 0 0-100.707802-18.300176-188.741879-65.641937z m191.072026 10.229913S119.064811 538.521403 35.691027 476.971431c0 0-43.306628-183.172261 61.32264-354.466457 0 0 107.755075-23.585631 216.248977-12.616891 0 0-0.738827 67.972083 43.363461 101.844459 0 0-53.422875 138.046981-40.180822 284.846221 0 0.056833-55.014194 13.469384-67.631086 69.50657z m-108.493902-507.51731s137.705984-213.12317 456.936077-183.797422c0 0-113.381527 108.096072-136.739826 142.820941 0 0-88.829737-22.107977-119.519474 40.919648-0.113666 0.113666-114.916013-17.277185-200.619944 0.113666z m364.980533-7.7861s22.051144 9.491085 30.178241 63.084459c0 0 177.432143 62.402464 286.835371 229.604695 0 0 34.668036-2.273314 58.935661 16.652024 0 0 82.748623-77.29267 122.020119-178.341469 0 0-77.235837-220.966103-327.243524-292.00716-0.113666-0.113666-112.529034 73.314371-170.725868 161.007451z m453.696605 606.861123s128.953726-148.333726 70.813725-400.103231c0 0-71.552552 115.711673-107.186746 142.536776 0 0 31.940059 62.1183-4.717126 107.868741 0 0.056833 34.099707 66.892259 41.090147 149.697714z m-543.435668 32.963051s37.850675-30.576071 39.271497-58.480998c0 0 159.927627-9.945748 298.429271-97.184166 0 0 61.947801 51.035895 121.735955 13.071555 0 0 32.906217 60.981643 39.782991 173.112847 0 0-123.668272 163.110266-381.689389 168.964049-0.056833-0.113666-100.707802-137.364987-117.530325-199.483287z m-43.988622-197.380472s74.451027-4.717126 86.954254 83.657948c0 0 147.367568-13.639883 264.841059-83.657948 0 0-28.35959-89.341233 44.500118-133.102524 0 0-73.428036-110.824049-240.6871-190.446865 0 0-32.96305 76.838007-119.519474 62.572963 0.056833 0-35.065866 67.858417-36.088857 260.976426z"  horiz-adv-x="1079" />

    
    <glyph glyph-name="message" unicode="&#58909;" d="M499.5072 862.5152c-261.632 0-473.6-185.5488-473.6-414.4128 0-130.816 69.376-247.296 177.5616-323.2768v-209.5104l207.5136 125.7984c28.672-4.7104 58.2144-7.4752 88.5248-7.4752 261.5296 0 473.6 185.5488 473.6 414.464 0 228.864-212.0704 414.4128-473.6 414.4128zM262.656 388.864a59.1872 59.1872 0 1 0 0.0512 118.4256 59.1872 59.1872 0 0 0 0-118.4256z m236.8512 0a59.2384 59.2384 0 1 0 0 118.4768 59.2384 59.2384 0 0 0 0-118.4768z m236.8 0a59.1872 59.1872 0 1 0 0 118.4256 59.1872 59.1872 0 0 0 0-118.4256z"  horiz-adv-x="1024" />

    
    <glyph glyph-name="b-active" unicode="&#58912;" d="M470.60423111 741.33617779c-177.77436445 0-321.87733333-144.10979555-321.87733333-321.87733334 0-152.83086222 106.77361778-280.15160889 249.61365333-313.04817778l9.25013334-110.98453333C200.52650667 25.974328890000038 41.43445333 203.90001779 41.43445333 419.45770667c0 237.02528 192.15132445 429.17091555 429.17546667 429.17091556 215.55882667 0 393.48451555-159.08636445 424.03271111-366.15168l-110.99136 9.25127111C750.75470222 634.5671111199999 623.43395555 741.33617779 470.60423111 741.33617779z m480.91249778-382.55502223l-219.136-106.82140444 176.59904-176.60359111a53.64622222 53.64622222 0 0 0-75.86474667-75.86474667L658.79495111 173.81831111999998l-95.68256-225.80451556-178.69482666 553.68817778 567.09916444-142.92081778z"  horiz-adv-x="1024" />

    
    <glyph glyph-name="b-add" unicode="&#58913;" d="M960 448H576V832H448v-384H64v-128h384v-384h128V320h384z"  horiz-adv-x="1024" />

    
    <glyph glyph-name="b-edit" unicode="&#58915;" d="M201.728 257.024l183.296-183.296 427.52 427.52-183.296 183.296-427.52-427.52zM65.024-29.696c-6.656-20.48 12.288-39.424 32.768-32.768L323.584 12.8 140.288 196.096 65.024-29.696z m869.888 775.68l-60.928 60.928c-33.792 33.792-88.576 33.792-122.368 0l-60.928-60.928 183.296-183.296 60.928 60.928c33.792 33.792 33.792 88.576 0 122.368z"  horiz-adv-x="1024" />

    
    <glyph glyph-name="b-refresh" unicode="&#58916;" d="M702.273 148.407c-52.886-37.518-114.764-56.327-178.022-55.46a318.124 318.124 0 0 0-24.875 1.258c-3.353 0.32-6.71 0.876-10.078 1.301-6.46 0.867-12.935 1.743-19.222 2.975-3.897 0.748-7.704 1.758-11.512 2.652-6.168 1.467-12.308 2.945-18.327 4.76-2.9 0.91-5.727 1.95-8.598 2.93-6.944 2.359-13.86 4.79-20.597 7.647-1.523 0.617-2.988 1.345-4.512 2.036-7.852 3.503-15.645 7.178-23.146 11.308a166.38 166.38 0 0 1-1.04 0.541 307.577 307.577 0 0 0-69.16 52.46c-0.308 0.321-0.645 0.704-0.98 1.07a298.092 298.092 0 0 0-18.152 20.216c-1.201 1.495-2.374 3.105-3.59 4.643-41.56 52.648-66.625 119.275-66.625 191.762h70.499c1.82 0 3.583 0.976 4.506 2.69a5.115 5.115 0 0 1-0.231 5.246l-118.504 179.97c-0.915 1.39-2.489 2.305-4.276 2.305s-3.362-0.916-4.276-2.304L53.049 408.446a5.117 5.117 0 0 1-0.231-5.245 5.115 5.115 0 0 1 4.508-2.691h70.512c0-85.216 26.237-164.204 70.815-229.512 0.543-0.91 0.938-1.877 1.538-2.786 4.614-6.679 9.742-12.847 14.693-19.16 1.847-2.389 3.575-4.848 5.494-7.191 7.296-8.966 15.045-17.39 23.014-25.623 0.762-0.82 1.466-1.625 2.213-2.358 26.75-27.115 57.001-49.97 89.903-68.237 0.85-0.514 1.7-1.043 2.637-1.525 9.478-5.155 19.22-9.814 29.094-14.224 2.462-1.068 4.864-2.27 7.369-3.326 8.439-3.545 17.11-6.65 25.856-9.61 4.13-1.422 8.233-2.872 12.422-4.174 7.633-2.286 15.44-4.205 23.322-6.094 5.215-1.23 10.4-2.564 15.719-3.59 2.212-0.454 4.292-1.143 6.461-1.479 7.412-1.333 14.883-2.08 22.31-2.988 2.681-0.324 5.318-0.778 8-1.069 13.346-1.334 26.646-2.212 39.935-2.212 81.319 0 160.66 25.181 228.72 73.452 21.683 15.424 26.972 45.69 11.78 67.679-15.237 22.032-45.18 27.35-66.86 11.924M927.917 400.51c-0.044 84.951-26.12 163.78-70.478 228.955-0.645 1.113-1.085 2.242-1.815 3.282-5.508 7.969-11.532 15.397-17.52 22.838-0.689 0.909-1.333 1.86-2.066 2.755-40.596 49.867-91.56 88.38-149.322 113.562-1.598 0.703-3.164 1.48-4.775 2.183-9.216 3.838-18.665 7.236-28.156 10.445-3.428 1.142-6.783 2.402-10.284 3.442-8.277 2.535-16.671 4.6-25.14 6.578-4.672 1.1-9.345 2.3-14.078 3.237-2.343 0.455-4.555 1.157-6.869 1.582-6.314 1.1-12.658 1.583-18.986 2.417-4.395 0.557-8.673 1.245-13.097 1.7-10.635 0.996-21.184 1.42-31.73 1.61-1.935 0-3.795 0.309-5.714 0.309-0.35 0-0.672-0.104-1.025-0.132-81.217-0.059-160.383-24.89-228.356-73.1-21.74-15.382-27.028-45.677-11.822-67.681 15.177-22.004 45.164-27.336 66.86-11.91 52.503 37.224 113.752 56.064 176.57 55.493 9.038-0.059 17.93-0.512 26.72-1.348 2.71-0.308 5.392-0.718 8.086-1.055 7.224-0.894 14.387-1.933 21.446-3.34 3.121-0.615 6.198-1.42 9.243-2.125 6.93-1.581 13.845-3.28 20.613-5.347 2.138-0.688 4.246-1.464 6.385-2.168 7.721-2.563 15.323-5.318 22.797-8.467 0.76-0.322 1.538-0.718 2.27-1.025 44.738-19.484 83.985-49.472 114.603-87.004 0.191-0.219 0.38-0.513 0.557-0.732 43.098-53.119 69.043-121.018 69.072-194.954h-70.528c-1.82 0-3.583-0.976-4.507-2.691s-0.77-3.723 0.233-5.245L875.636 212.62a5.114 5.114 0 0 1 4.277-2.304 5.114 5.114 0 0 1 4.275 2.305l118.477 179.954a5.112 5.112 0 0 1 0.231 5.245 5.114 5.114 0 0 1-4.506 2.691h-70.473v-0.001z"  horiz-adv-x="1024" />

    
    <glyph glyph-name="b-search" unicode="&#58917;" d="M512 889.6C233.216 889.6 6.4 662.784 6.4 384s226.816-505.6 505.6-505.6 505.6 226.816 505.6 505.6S790.784 889.6 512 889.6z m0-934.4c-236.4416 0-428.8 192.3584-428.8 428.8S275.5584 812.8 512 812.8s428.8-192.3584 428.8-428.8-192.3584-428.8-428.8-428.8zM574.464 241.408c0-22.1696 1.8432-36.608 5.4784-43.4176 3.6352-6.8096 10.3936-11.4688 20.224-13.9776v-85.7088H429.8752v85.7088c9.8304 1.536 16.6912 6.6048 20.5824 15.3088s5.8368 24.9856 5.8368 48.896v134.0416c0 19.4048-1.8432 32.3072-5.4784 38.7072-3.6864 6.4-10.6496 11.52-20.9408 15.3088V520.4992h144.5888v-279.0912zM442.3168 608.8192c0 18.3808 6.5024 34.1504 19.456 47.4112 12.9536 13.2096 28.672 19.8144 47.0528 19.8144 18.5856 0 34.4576-6.6048 47.5648-19.8144s19.6608-29.0304 19.6608-47.4112-6.7072-34.048-20.0704-47.0016c-13.3632-12.9536-29.0304-19.456-47.1552-19.456-17.92 0-33.4336 6.6048-46.6944 19.8144-13.2096 13.2096-19.8144 28.7744-19.8144 46.6432z"  horiz-adv-x="1024" />

    
    <glyph glyph-name="b-set" unicode="&#58918;" d="M1021.376 241.856c1.472-8.768 1.152-19.264-1.152-31.616-2.112-12.352-5.76-24.96-10.88-37.632-5.12-12.736-11.264-24.192-18.496-34.368-7.232-10.24-15.36-17.472-24-21.824-8.768-4.416-16.384-6.592-22.976-6.592-6.528 0-13.76 1.408-21.76 4.352-7.232 2.176-16.384 4.16-27.264 6.016-11.008 1.792-22.016 2.112-33.344 1.088-11.264-1.088-22.528-3.456-33.728-7.04s-20.992-9.856-28.864-18.56c-17.472-18.176-27.776-38.912-30.656-62.208s0.384-45.44 9.856-66.56c7.232-14.592 6.144-29.056-3.264-43.648-4.352-5.824-11.392-11.84-20.736-17.984-9.472-6.208-19.904-11.84-31.104-16.96s-23.104-9.088-35.52-12.032c-12.352-2.816-23.232-4.288-32.768-4.288-6.528 0-12.608 2.56-18.496 7.616-5.76 5.12-9.728 10.624-12.032 16.384h-1.088c-8 22.592-21.632 41.984-40.896 58.368s-41.6 24.576-67.136 24.576c-24.704 0-47.104-8.192-67.072-24.576-20.032-16.384-34.048-35.456-42.048-57.28-3.648-8.768-9.088-15.104-16.384-19.136-7.168-3.968-15.168-5.952-23.936-5.952-10.176 0-21.632 1.792-34.368 5.504-12.736 3.648-25.472 8.192-38.208 13.632s-24.192 11.84-34.368 19.136c-10.176 7.232-17.792 14.528-22.912 21.76-3.648 5.12-5.632 11.136-6.016 17.984-0.384 6.912 2.368 16.576 8.192 28.928 8 16.768 11.072 35.84 9.28 57.344-1.792 21.44-11.072 41.28-27.84 59.456-10.176 10.944-22.528 17.984-37.056 21.248-14.592 3.328-28.352 4.544-41.472 3.84-15.296-0.704-30.912-3.648-46.912-8.768-10.176-2.88-20.352-2.112-30.592 2.24-8 2.88-15.424 9.6-22.4 20.096-6.912 10.56-13.056 22.272-18.56 34.944A217.687 217.687 0 0 0 9.856 208.64c-2.88 13.44-3.648 24.512-2.176 33.28 2.176 16 9.408 26.176 21.824 30.528 21.824 8.768 41.408 23.104 58.88 43.136s26.176 42.368 26.176 67.136c0 25.408-8.704 47.616-26.176 66.56s-37.12 32.704-58.88 41.472c-6.4 2.048-11.84 7.296-16.192 15.68s-6.592 16.96-6.592 25.6c0 9.472 1.472 20.032 4.352 31.68s6.72 22.912 11.456 33.856c4.736 10.88 10.24 20.864 16.384 30.016 6.208 9.024 12.928 15.808 20.16 20.16 5.824 3.648 11.52 5.056 16.96 4.352 5.44-0.704 11.456-2.176 17.984-4.352 21.824-8.768 44.544-11.456 68.224-8.192 23.616 3.264 44.544 13.632 62.72 31.04 8.704 8.768 15.04 19.52 19.072 32.192 3.968 12.8 6.592 25.344 7.616 37.696 1.152 12.352 1.152 23.616 0 33.792-1.024 10.24-1.984 17.472-2.688 21.824-1.472 4.352-2.752 9.472-3.84 15.296s-0.512 10.944 1.6 15.296c4.352 10.176 12.16 19.072 23.488 26.688 11.264 7.616 23.424 14.016 36.544 19.136 13.12 5.056 25.856 8.832 38.208 11.456 12.352 2.56 22.208 3.84 29.44 3.84 9.408 0 16.896-3.072 22.4-9.28 5.44-6.208 9.216-12.608 11.392-19.136 8-19.648 21.12-36.864 39.296-51.84 18.176-14.912 39.68-22.4 64.384-22.4 25.472 0 48 7.104 67.648 21.312 19.648 14.208 33.472 32.192 41.472 54.016 2.88 5.824 7.488 11.84 13.632 17.984 6.144 6.208 12.48 9.28 19.136 9.28 10.112 0 21.248-1.408 33.28-4.352 12.032-2.88 23.872-6.912 35.392-12.032a133.501 133.501 0 0 0 32.256-19.648c9.856-8 17.6-16.704 23.488-26.176 3.648-5.824 4.736-12.16 3.264-19.072s-2.88-11.84-4.352-14.72c-9.472-21.12-12.352-43.264-8.768-66.56 3.648-23.232 14.272-43.648 31.616-61.12 17.472-17.472 38.976-27.072 64.384-28.928 25.472-1.792 49.152 2.368 70.976 12.544 5.76 3.648 12.864 5.12 21.248 4.352s15.36-4.032 21.248-9.792c10.88-10.176 20.48-25.664 28.864-46.4s14.016-41.664 16.896-62.72c1.472-12.352-0.512-22.016-5.888-28.928-5.504-6.848-11.136-11.456-17.024-13.632-22.528-8-41.728-22.016-57.728-41.984s-24-42.752-24-68.16c0-24.768 6.72-46.4 20.096-64.96 13.504-18.496 31.104-31.808 52.864-39.808 5.12-2.88 9.472-5.824 13.12-8.704 8-6.528 13.504-14.912 16.384-25.088zM514.048 143.68c32.704 0 63.68 6.208 92.672 18.56 29.12 12.352 54.4 29.44 75.904 51.264 21.504 21.888 38.4 47.104 50.752 75.84 12.352 28.736 18.496 59.52 18.496 92.16 0 32.768-6.144 63.488-18.496 92.16-12.352 28.736-29.248 53.888-50.752 75.328s-46.72 38.4-75.904 50.752c-28.992 12.352-60.032 18.56-92.672 18.56-32.704 0-63.488-6.208-92.224-18.56-28.672-12.352-53.824-29.312-75.2-50.752-21.44-21.44-38.4-46.592-50.752-75.328-12.352-28.672-18.56-59.456-18.56-92.16 0-32.704 6.208-63.424 18.56-92.16 12.352-28.672 29.312-53.952 50.752-75.84 21.44-21.824 46.592-38.848 75.264-51.264 28.736-12.352 59.456-18.56 92.16-18.56z m0 0"  horiz-adv-x="1025" />

    
    <glyph glyph-name="b-stop" unicode="&#58919;" d="M512.154 896C229.488 896 0.307 666.828 0.307 384.174s229.18-511.826 511.847-511.826 511.845 229.172 511.845 511.826S794.82 896 512.154 896z m0-927.685c-229.682 0-415.875 186.187-415.875 415.859s186.193 415.86 415.875 415.86c229.68 0 415.874-186.188 415.874-415.86s-186.194-415.86-415.874-415.86zM319.106 577.48h380.507v-383.87H319.106V577.48z"  horiz-adv-x="1024" />

    
    <glyph glyph-name="link-l" unicode="&#59276;" d="M654.196 754.888c5.822 0 11.677-1.976 16.479-6.021 10.814-9.108 12.196-25.259 3.088-36.072l-271.177-321.947 258.662-309.326c9.07-10.846 7.63-26.991-3.216-36.061-10.846-9.069-26.991-7.629-36.06 3.217l-272.445 325.808c-7.971 9.532-7.946 23.411 0.058 32.914l285.017 338.38c5.064 6.012 12.304 9.107 19.593 9.108z"  horiz-adv-x="1024" />

    
    <glyph glyph-name="s-error" unicode="&#58920;" d="M347.393 582.872l381.090-381.144-38.104-38.104-381.036 381.036zM728.483 544.714l-381.090-381.144-38.104 38.104 381.036 381.036zM513.497-128c-282.301 0-512 229.699-512 512s229.699 512 512 512 512-229.699 512-512-229.699-512-512-512zM513.497 842.105c-252.605 0-458.105-205.501-458.105-458.105s205.501-458.105 458.105-458.105 458.105 205.501 458.105 458.105c0 252.605-205.501 458.105-458.105 458.105z"  horiz-adv-x="1080" />

    
    <glyph glyph-name="s-success" unicode="&#58921;" d="M442.625 197.309l-162.654 148.965 36.433 39.774 124.551-114.095 279.498 280.468 38.211-38.104zM513.497-128c-282.301 0-512 229.699-512 512s229.699 512 512 512 512-229.699 512-512-229.699-512-512-512zM513.497 842.105c-252.605 0-458.105-205.501-458.105-458.105s205.501-458.105 458.105-458.105 458.105 205.501 458.105 458.105c0 252.605-205.501 458.105-458.105 458.105z"  horiz-adv-x="1080" />

    
    <glyph glyph-name="s-warning" unicode="&#58922;" d="M481.16 670.073h59.284v-436.547h-59.284v436.547zM513.497 98.789c0.002-0 0.004-0 0.006-0 22.324 0 40.421 18.097 40.421 40.421 0 22.324-18.097 40.421-40.421 40.421-0.002 0-0.004-0-0.007-0-22.321-0.004-40.414-18.099-40.414-40.421 0-22.322 18.093-40.417 40.414-40.421zM513.497-128c-282.301 0-512 229.699-512 512s229.699 512 512 512 512-229.699 512-512-229.699-512-512-512zM513.497 842.105c-252.605 0-458.105-205.501-458.105-458.105s205.501-458.105 458.105-458.105 458.105 205.501 458.105 458.105c0 252.605-205.501 458.105-458.105 458.105z"  horiz-adv-x="1080" />

    
    <glyph glyph-name="s-close" unicode="&#58923;" d="M513.527-128c-282.301 0-512 229.699-512 512s229.699 512 512 512 512-229.699 512-512-229.699-512-512-512zM513.527 842.105c-252.605 0-458.105-205.501-458.105-458.105s205.501-458.105 458.105-458.105 458.105 205.501 458.105 458.105c-0.054 252.605-205.501 458.105-458.105 458.105zM563.703 682.631v-54.434c114.344-24.311 198.902-124.38 199.033-244.222-0-137.406-111.778-249.238-249.263-249.238s-249.209 111.832-249.209 249.263c0.193 119.153 83.868 218.707 195.652 243.31l1.603 55.052c-142.444-24.738-251.149-148.965-251.149-298.361 0.153-167.368 135.79-303.005 303.143-303.158 167.358 0.215 302.958 135.815 303.172 303.138-0.054 150.063-109.73 274.614-252.982 298.651zM542.145 524.45c-0-15.805-12.813-28.618-28.618-28.618-15.805 0-28.618 12.813-28.618 28.618l-0 198.764c0 15.805 12.813 28.618 28.618 28.618 15.805 0 28.618-12.813 28.618-28.618l-0-198.764z"  horiz-adv-x="1080" />

    
    <glyph glyph-name="s-sleep" unicode="&#58924;" d="M700.757 196.015c-43.728-94.909-138.035-159.605-247.453-159.605-150.017 0-271.629 121.613-271.629 271.629 0 109.418 64.695 203.725 157.92 246.756-13.585-32.209-22.492-70.728-22.492-111.328 0-150.017 121.613-271.629 271.629-271.629 40.599 0 79.118 8.907 113.709 24.874zM787.528 378.611h-242.311v17.139l169.715 231.963h-153.869v42.792h227.544v-16.869l-168.637-232.232h167.559v-42.792zM513.527-128c-282.301 0-512 229.699-512 512s229.699 512 512 512 512-229.699 512-512-229.699-512-512-512zM513.527 842.105c-252.605 0-458.105-205.501-458.105-458.105s205.501-458.105 458.105-458.105 458.105 205.501 458.105 458.105c-0.054 252.605-205.501 458.105-458.105 458.105z"  horiz-adv-x="1080" />

    
    <glyph glyph-name="s-question" unicode="&#58925;" d="M524.869 271.683h-54.973v27.163c0 22.097 4.419 41.122 13.258 57.021s24.63 32.66 47.373 50.392c22.312 17.246 38.265 33.415 47.859 48.451s14.39 32.391 14.39 51.955c0 20.857-7.437 37.996-22.259 51.469s-35.032 20.211-60.47 20.211c-40.205 0-75.56-15.252-106.119-45.811v64.458c32.304 20.792 71.749 33.147 114.080 33.147 0.309 0 0.617-0.001 0.925-0.002 41.020 0 73.68-10.779 97.987-32.391s36.487-49.853 36.487-84.776c0-24.414-5.659-46.619-17.031-66.614-11.372-19.995-30.397-41.068-57.182-63.165-21.45-17.893-35.894-32.121-43.277-42.631s-11.048-25.277-11.048-44.194v-24.684zM497.113 205.716c11.156 0 20.749-3.88 28.726-11.695s12.019-17.246 12.019-28.403c0-11.372-3.988-20.911-12.019-28.564s-17.57-11.533-28.726-11.533c-10.725 0-20.103 3.773-28.079 11.372s-12.019 17.139-12.019 28.726c0 11.372 3.934 20.911 11.857 28.564s17.246 11.533 28.241 11.533zM513.497-128c-282.301 0-512 229.699-512 512s229.699 512 512 512 512-229.699 512-512-229.699-512-512-512zM513.497 842.105c-252.605 0-458.105-205.501-458.105-458.105s205.501-458.105 458.105-458.105 458.105 205.501 458.105 458.105c0 252.605-205.501 458.105-458.105 458.105z"  horiz-adv-x="1080" />

    
    <glyph glyph-name="back-top" unicode="&#58926;" d="M313.832 258.974l-34.377 34.621 234.74 232.594 230.449-232.741-34.621-34.328-196.169 198.071z"  horiz-adv-x="1024" />

    
    <glyph glyph-name="back-former" unicode="&#58927;" d="M416.134 392.777l-108.398 148.334 108.837 139.508 38.473-30.037-86.211-110.397 86.65-118.638zM553.155 560.128h-199.631v-48.762h199.631c81.53 0 147.797-63.147 147.797-140.776s-66.267-140.776-147.797-140.776h-238.641v-48.762h238.641c108.398 0 196.559 85.041 196.559 189.538 0 104.546-88.21 189.538-196.559 189.538z"  horiz-adv-x="1024" />

    
    <glyph glyph-name="page" unicode="&#58928;" d="M902.485 896h-780.971c-24.462 0-43.292-27.477-43.292-59.335v-882.574c0-31.858 18.83-59.335 43.292-59.335h780.971c24.462 0 43.292 27.477 43.292 59.335v882.574c0 31.858-18.83 59.335-43.292 59.335zM211.627 744.732h333.767v-66.731h-333.767v66.731zM812.373 77.198h-600.747v66.731h600.747v-66.731zM812.373 277.504h-600.747v66.731h600.747v-66.731zM812.373 477.753h-600.747v66.731h600.747v-66.731z"  horiz-adv-x="1024" />

    
    <glyph glyph-name="tishi" unicode="&#58929;" d="M520.312471 896c-282.3168 0-512-229.6832-512-512s229.6832-512 512-512 512 229.6832 512 512-229.6832 512-512 512zM519.954071 220.928c18.2272 0 33.8432-5.888 46.7968-17.6128 12.9536-11.7248 19.4048-26.0096 19.4048-42.8032 0-16.2816-6.4512-30.3104-19.4048-42.0864-12.9536-11.7248-28.5696-17.6128-46.7968-17.6128s-33.6896 5.888-46.3872 17.6128a55.296 55.296 0 0 0-19.0464 42.0864c0 16.7936 6.3488 31.0272 19.0464 42.8032 12.6976 11.7248 28.16 17.6128 46.3872 17.6128z m57.5488 446.2592l-13.312-387.2768H475.000471l-12.5952 387.2768h115.0976z"  horiz-adv-x="1204" />

    
    <glyph glyph-name="paixu-shang" unicode="&#58931;" d="M488.48896 21.33504A21.32992 21.32992 0 0 0 467.15392 0a21.32992 21.32992 0 0 0-21.33504 21.33504V746.66496A21.32992 21.32992 0 0 0 467.15392 768c11.776 0 21.33504-9.53344 21.33504-21.33504v-725.32992zM358.97856 603.58656a21.2992 21.2992 0 0 0-30.16704 0 21.31456 21.31456 0 0 0 0 30.16704l123.264 128a21.2992 21.2992 0 0 0 30.16704 0 21.31456 21.31456 0 0 0 0-30.16704l-123.264-128z"  horiz-adv-x="1024" />

    
    <glyph glyph-name="paixu-xia" unicode="&#58932;" d="M679.44448 6.25152a21.2992 21.2992 0 0 0-30.16704 0 21.31456 21.31456 0 0 0 0 30.16704l123.264 128a21.2992 21.2992 0 0 0 30.16704 0 21.31456 21.31456 0 0 0 0-30.16704l-123.264-128zM685.696 21.33504a21.32992 21.32992 0 0 0-21.33504-21.33504 21.32992 21.32992 0 0 0-21.33504 21.33504V746.66496A21.32992 21.32992 0 0 0 664.36096 768c11.776 0 21.33504-9.53344 21.33504-21.33504v-725.32992z"  horiz-adv-x="1024" />

    
    <glyph glyph-name="buchaoshi" unicode="&#58933;" d="M521.035294-128c-282.3168 0-512 229.6832-512 512s229.6832 512 512 512 512-229.6832 512-512-229.6832-512-512-512z m0 972.8c-254.1056 0-460.8-206.7456-460.8-460.8 0-254.1056 206.6944-460.8 460.8-460.8s460.8 206.6944 460.8 460.8c0 254.0544-206.6944 460.8-460.8 460.8zM382.283294 141.4656l-36.5056 35.8912L500.555294 334.7968V668.416h51.2v-354.5088z"  horiz-adv-x="1204" />

    
    </font>
</defs>
</svg>
